<svg xmlns="http://www.w3.org/2000/svg" viewBox="0 0 1200 2500" preserveAspectRatio="none">
  <path fill="white" d="M94.3,0 128.7,35 138.2,70 171.2,105 205.3,140 220.2,175 223.2,210 234.3,245 238.5,280 243.1,315 252.7,350 268.1,385 247.4,420 261.9,455 278.7,490 259.5,525 267.3,560 289.8,595 302,630 297.9,665 314.6,700 329.2,735 330.5,770 344.8,805 353.8,840 335.5,875 341.5,910 320,945 320.7,980 326.9,1015 299.8,1050 308.2,1085 302.8,1120 311.8,1155 312.6,1190 328,1225 341.6,1260 371.5,1295 387.3,1330 417.5,1365 451.3,1400 477.2,1435 492.8,1470 520.2,1505 550.2,1540 545.6,1575 580.4,1610 576.6,1645 580.2,1680 615,1715 609.9,1750 614,1785 638.7,1820 634,1855 655.1,1890 664.8,1925 699.5,1960 700,1995 716.6,2030 738.8,2065 757.3,2100 755.6,2135 773.2,2170 760.2,2205 766.9,2240 762.4,2275 758.4,2310 759.1,2345 744.8,2380 730.7,2415 728.9,2450 712,2485 1012.6,2485 1023.1,2450 1039.5,2415 1035.2,2380 1060.3,2345 1060.2,2310 1077.7,2275 1061.9,2240 1081.4,2205 1073.5,2170 1054.8,2135 1043.6,2100 1043.8,2065 1035.2,2030 1016.3,1995 979,1960 984,1925 959.3,1890 942.4,1855 933.3,1820 927,1785 896.5,1750 915.5,1715 896.4,1680 870,1645 868.4,1610 852.9,1575 854.7,1540 815.3,1505 813.9,1470 790.5,1435 764.8,1400 719.5,1365 698.7,1330 679.6,1295 648.3,1260 642.5,1225 625.1,1190 622.5,1155 608.5,1120 610.7,1085 622.1,1050 618.2,1015 624.8,980 623.4,945 641,910 635.7,875 645,840 651.6,805 620.6,770 625.9,735 615.1,700 616,665 584,630 577,595 572.3,560 568.2,525 577.6,490 550.2,455 571.3,420 545,385 554.6,350 560.3,315 559.8,280 555.1,245 531.5,210 523.1,175 502.8,140 486.2,105 448.4,70 414.1,35 399.4,0Z"/>
</svg>
