<svg xmlns="http://www.w3.org/2000/svg" viewBox="0 0 1000 500" preserveAspectRatio="none"><defs><mask id="m"><path d="M35.0,0.0L38.1,-0.9L41.0,0.8L44.0,0.4L47.1,-0.3L49.8,2.4L53.1,-0.2L55.9,1.4L58.9,2.0L61.8,3.1L64.9,2.2L68.0,1.4L70.9,2.5L73.9,2.6L76.9,2.5L79.9,2.8L83.0,2.3L85.6,6.3L88.7,5.1L91.7,5.5L94.9,3.5L97.8,4.4L100.7,5.7L103.5,7.6L106.8,5.5L109.6,7.6L112.6,6.9L115.7,6.9L118.7,7.0L121.5,9.3L124.4,9.5L127.5,8.9L130.7,7.4L133.4,10.7L136.4,11.0L139.5,9.9L142.5,10.1L145.4,10.7L148.4,11.3L151.4,11.0L154.4,11.5L157.4,11.2L160.4,11.7L163.4,11.5L166.3,12.6L169.3,12.6L172.5,11.1L175.3,13.6L178.2,14.7L181.3,13.3L184.3,13.7L187.1,15.6L190.4,12.9L193.2,15.1L196.3,14.4L199.4,13.5L202.2,14.8L205.0,17.7L208.2,15.4L211.2,15.4L214.1,16.6L217.2,15.5L220.0,17.9L223.2,15.7L226.0,18.2L229.3,15.7L232.0,18.1L235.0,18.3L238.2,16.5L241.0,19.0L243.7,16.6L246.9,18.5L249.7,16.8L252.6,15.9L255.6,16.3L258.7,17.7L261.5,15.4L264.8,18.1L267.5,16.1L270.4,14.8L273.2,13.4L276.4,15.4L279.4,15.2L282.3,15.2L285.1,12.9L288.0,12.8L291.1,13.7L294.2,14.8L297.2,14.7L300.2,14.7L303.0,13.3L305.7,10.2L308.8,11.3L311.8,11.7L314.7,10.8L317.8,12.2L320.6,11.0L323.5,9.6L326.4,9.4L329.4,9.2L332.4,9.2L335.2,7.5L338.4,9.9L341.0,6.3L344.1,7.5L347.1,7.4L350.3,9.6L352.9,5.4L356.0,7.0L359.0,7.2L362.0,7.0L365.0,6.1L368.0,6.9L370.9,8.3L373.8,9.5L376.8,8.8L379.8,9.0L382.7,9.4L385.6,11.3L388.7,9.4L391.8,9.0L394.6,10.4L397.7,9.0L400.5,12.4L403.5,12.4L406.6,11.0L409.7,9.7L412.5,11.7L415.5,10.9L418.6,10.0L421.2,14.4L424.4,13.0L427.4,11.7L430.3,13.5L433.3,12.9L436.2,14.3L439.2,14.0L442.1,15.4L445.3,12.7L448.3,12.6L451.1,15.6L454.1,15.7L457.3,13.0L460.1,15.5L463.1,15.2L465.9,17.9L468.9,17.3L472.1,14.1L474.9,17.3L477.9,17.7L481.1,14.8L483.9,17.2L486.8,18.2L490.0,15.6L492.7,19.5L495.8,17.3L498.7,18.3L501.6,20.5L504.6,20.0L507.5,20.7L510.8,17.8L513.6,19.5L516.8,17.6L519.5,21.2L522.4,21.8L525.4,22.1L528.5,20.1L531.5,20.5L534.3,22.5L537.3,22.5L540.4,21.4L543.5,20.0L546.3,23.0L549.3,22.1L552.4,20.8L555.2,23.0L558.2,23.8L561.1,24.0L564.1,24.5L567.0,25.2L570.2,23.3L573.2,22.6L576.2,23.3L579.2,22.6L581.9,26.0L585.0,25.0L587.7,22.8L591.0,24.9L593.8,23.2L596.6,21.5L599.6,21.9L602.5,20.9L605.6,22.3L608.8,23.4L611.4,20.3L614.6,22.1L617.7,22.8L620.4,20.9L623.5,21.8L626.3,19.5L629.4,20.7L632.1,18.4L634.9,16.8L638.0,17.6L641.3,19.7L644.0,17.8L647.1,18.2L649.8,16.2L653.1,18.6L655.8,16.0L658.7,15.7L661.6,14.6L664.8,16.4L667.7,15.8L670.4,13.1L673.4,13.1L676.7,15.7L679.4,13.2L682.3,12.5L685.3,12.5L688.5,14.0L691.4,13.6L693.9,9.7L697.0,10.2L699.9,9.6L702.8,8.5L706.2,11.8L709.0,10.3L711.7,7.6L714.9,9.5L718.0,10.4L720.9,10.0L723.9,9.7L726.8,8.9L729.7,8.3L732.8,9.2L735.6,7.9L738.6,7.8L741.4,5.6L744.5,6.7L747.1,3.9L750.4,5.8L753.2,4.8L756.3,5.7L759.3,5.2L762.1,3.6L765.0,3.0L767.8,4.6L770.9,4.1L774.1,2.8L776.8,5.5L779.8,5.7L782.8,5.3L785.8,5.7L788.7,6.5L791.7,6.7L794.5,8.9L797.4,9.3L800.6,8.0L803.4,9.7L806.7,8.0L809.4,10.0L812.8,7.1L815.7,7.9L818.8,7.7L821.5,9.9L824.2,12.8L827.2,12.4L830.6,9.5L833.6,10.2L836.1,13.8L839.5,11.2L842.5,11.1L845.5,11.4L848.4,12.2L850.9,16.1L854.1,14.9L857.3,13.5L860.0,16.3L863.0,16.6L865.9,17.2L869.0,16.4L871.9,17.4L874.8,18.4L878.2,16.0L880.9,18.1L884.0,17.6L886.6,20.9L890.0,18.2L892.8,19.3L895.8,20.1L899.0,18.5L901.8,20.0L904.8,20.6L907.5,23.2L910.6,22.3L913.8,20.8L916.6,22.2L919.4,24.0L922.6,22.6L925.7,22.7L928.3,25.4L931.2,26.8L934.4,25.4L937.5,24.8L940.2,27.2L943.1,27.9L946.1,28.1L949.4,25.9L952.5,25.8L955.1,28.8L958.2,28.4L961.3,27.6L964.0,30.0L967.2,28.4L970.1,29.4L972.8,32.0L975.8,31.9L979.1,30.2L982.0,31.0L979.9,33.8L979.9,36.8L981.9,40.0L980.0,42.8L978.5,45.6L980.8,48.9L979.4,51.7L977.8,54.5L977.0,57.4L978.1,60.6L979.4,63.7L980.2,66.8L978.3,69.6L977.5,72.5L978.8,75.6L979.0,78.7L975.7,81.3L977.5,84.5L974.2,87.1L974.3,90.1L976.4,93.4L974.6,96.2L975.8,99.3L975.9,102.3L972.8,105.0L972.4,107.9L973.8,111.1L973.0,114.0L975.6,116.3L974.1,119.7L974.3,122.6L978.3,124.5L976.8,128.0L979.4,130.3L978.5,133.5L981.4,135.7L981.3,138.7L982.3,141.5L983.7,144.1L984.2,146.9L983.0,150.3L983.3,153.2L984.7,155.8L984.2,158.9L984.7,161.8L989.2,163.6L986.2,167.4L989.4,169.5L991.4,172.0L989.9,175.4L991.0,178.1L992.6,180.7L994.4,183.1L993.6,186.4L993.8,189.3L995.0,192.0L992.6,194.6L996.1,198.1L994.8,200.9L993.5,203.7L994.8,206.8L994.0,209.7L989.8,212.1L991.9,215.3L992.7,218.4L990.0,221.0L989.0,223.8L988.3,226.7L991.8,230.2L990.9,233.0L989.6,235.8L987.1,238.4L986.2,241.3L988.2,244.5L985.0,247.0L984.5,249.9L987.7,253.4L986.4,256.1L986.0,259.1L983.5,261.7L986.1,265.0L984.0,267.7L982.1,270.4L982.1,273.4L983.3,276.5L981.2,279.2L982.2,282.3L982.1,285.2L979.0,287.8L980.1,290.9L978.0,293.6L978.6,296.6L977.4,299.4L977.1,302.4L978.7,305.6L979.3,308.6L979.3,311.6L978.6,314.5L978.0,317.3L975.3,319.9L976.0,323.0L976.0,326.0L975.3,329.0L978.2,331.8L976.8,334.9L975.6,338.0L977.7,340.8L976.6,343.8L980.1,346.5L976.4,349.8L978.0,352.7L979.1,355.6L978.0,358.7L977.4,361.7L981.1,364.4L981.4,367.3L978.8,370.5L978.2,373.6L981.4,376.3L980.4,379.4L981.0,382.3L982.5,385.2L980.5,388.3L981.4,391.2L979.7,394.3L982.0,397.1L980.9,400.2L980.8,403.2L982.6,406.0L983.6,408.9L982.1,412.1L985.4,414.8L983.5,417.9L982.6,421.0L985.5,423.7L985.7,426.7L986.3,429.6L985.9,432.6L983.1,435.9L983.8,438.8L984.4,441.7L988.2,444.4L984.5,447.7L987.0,450.5L987.2,453.4L986.4,456.5L989.6,459.2L987.5,462.4L985.9,465.5L986.2,468.4L987.2,471.3L987.2,474.3L989.6,477.1L988.1,480.2L991.5,482.9L990.1,486.0L990.2,489.0L990.0,492.0L987.1,490.7L984.0,492.1L981.0,493.0L978.2,489.2L975.0,493.2L972.1,491.5L969.1,491.8L966.1,492.3L963.4,488.6L960.2,491.7L957.3,490.3L954.2,491.8L951.4,489.5L948.5,488.2L945.5,487.7L942.4,490.4L939.6,487.4L936.5,488.8L933.5,489.2L930.6,487.2L927.5,490.4L924.6,488.1L921.6,489.3L918.6,490.1L915.6,489.8L912.8,486.3L909.8,487.2L906.9,485.2L903.8,486.9L900.7,488.6L897.9,486.4L894.8,487.8L892.0,484.6L888.9,487.2L885.9,487.6L883.0,487.0L880.1,484.3L877.0,486.1L874.2,483.4L871.2,484.3L868.2,483.9L865.2,483.7L862.2,485.8L859.2,484.8L856.2,486.4L853.3,483.4L850.5,481.8L847.3,484.5L844.3,485.0L841.5,481.6L838.5,482.9L835.4,485.1L832.5,483.0L829.5,482.9L826.6,481.0L823.5,483.3L820.5,484.4L817.7,481.5L814.8,480.4L811.6,483.7L808.6,483.8L805.7,481.8L802.7,483.2L799.8,480.4L796.9,480.2L793.8,482.4L791.0,479.2L787.9,480.9L784.8,482.2L781.9,480.6L779.0,480.0L776.1,480.5L773.5,483.1L770.5,482.5L767.2,480.7L764.4,481.6L761.8,484.4L758.7,483.6L756.0,485.4L753.0,484.9L749.6,482.2L747.3,486.4L744.1,485.0L741.5,487.4L738.3,486.0L735.1,484.9L732.2,485.2L729.8,488.8L726.7,487.9L723.8,488.8L721.1,490.4L718.2,490.9L715.2,490.9L712.1,489.7L709.5,492.2L706.3,490.6L703.2,490.1L700.7,493.5L697.4,491.0L695.0,495.0L691.7,492.5L688.6,491.8L686.0,494.5L683.0,494.0L680.4,496.3L677.5,497.4L674.4,496.1L671.7,498.3L668.4,496.2L665.8,498.1L662.8,497.9L659.7,497.6L657.2,500.8L654.0,499.0L651.0,499.8L647.9,500.8L645.0,499.7L642.3,496.8L639.3,496.5L636.1,498.9L633.2,497.9L630.4,495.8L627.4,496.3L624.5,495.6L621.4,496.6L618.5,495.8L615.7,494.4L612.5,496.4L609.6,495.0L606.7,494.0L603.8,493.3L600.6,496.7L597.9,493.3L594.8,494.6L592.0,491.9L589.0,492.4L585.9,494.2L583.2,490.9L580.2,490.9L577.2,490.9L574.1,492.0L571.1,493.1L568.3,490.9L565.4,489.6L562.3,491.3L559.2,492.4L556.3,491.2L553.5,489.0L550.6,488.1L547.5,490.2L544.5,490.2L541.4,491.6L538.6,488.9L535.7,488.5L532.9,486.8L529.6,489.9L526.7,489.6L524.0,486.4L520.8,488.5L518.0,486.5L514.8,488.7L512.0,487.2L509.0,486.8L506.2,485.3L503.2,484.7L500.0,487.6L497.2,486.3L494.0,487.8L491.4,484.3L488.2,485.9L485.3,485.9L482.4,484.8L479.5,483.7L476.3,486.4L473.5,483.5L470.6,483.1L467.5,484.1L464.6,483.8L461.8,480.9L458.9,481.0L455.8,481.5L452.9,481.4L449.9,480.9L446.9,481.3L444.0,481.0L440.9,482.4L438.0,481.0L435.0,480.6L432.3,482.8L429.2,481.9L426.1,481.3L423.6,484.8L420.6,484.8L417.5,483.8L414.9,486.3L411.6,484.6L409.0,487.0L405.8,485.8L402.6,484.2L400.0,486.9L397.2,488.0L394.1,487.4L390.9,485.8L388.2,487.6L385.4,489.1L382.5,489.5L379.4,489.1L376.8,491.3L373.7,490.8L370.8,491.6L368.0,492.4L364.8,491.1L361.7,490.4L358.9,491.7L356.1,492.7L353.3,494.4L350.4,495.1L347.5,495.3L344.6,496.2L341.2,493.0L338.2,492.8L335.9,497.7L332.6,495.5L330.0,498.4L327.0,498.1L324.0,498.4L321.0,498.0L318.0,498.0L315.0,497.8L312.3,495.2L309.0,497.4L306.1,496.9L303.0,497.3L300.2,495.7L297.0,497.4L294.2,495.3L291.0,497.1L288.1,496.6L285.1,496.0L282.1,496.1L279.3,493.4L276.4,492.8L273.1,495.5L270.2,494.2L267.3,494.0L264.4,492.7L261.5,490.7L258.3,493.4L255.6,490.0L252.4,492.2L249.5,491.4L246.3,493.1L243.5,490.8L240.3,492.6L237.6,490.0L234.4,491.4L231.5,490.8L228.4,491.5L225.8,487.7L222.6,489.6L219.6,489.1L216.7,487.7L213.8,486.6L210.6,489.1L207.8,487.2L204.9,485.6L201.9,485.0L198.9,485.0L195.6,488.1L192.7,487.6L189.8,486.4L186.7,487.7L183.9,484.5L180.9,485.2L177.9,484.5L174.9,484.8L172.1,483.1L168.8,486.0L166.2,481.8L163.1,482.8L160.2,481.5L157.0,483.0L154.3,480.3L151.2,481.2L148.1,481.5L145.3,480.3L142.3,479.6L139.1,481.7L136.0,482.7L133.0,482.8L130.3,479.4L127.4,478.4L124.4,478.6L121.2,480.2L118.4,478.3L115.3,479.0L112.5,476.6L109.5,476.5L106.2,480.2L103.5,477.0L100.5,476.7L97.3,478.5L94.4,477.6L91.7,474.7L88.6,475.6L85.6,475.0L82.3,478.0L79.4,477.5L76.7,474.4L73.5,475.7L70.8,473.2L67.5,475.3L64.5,475.2L61.7,473.3L58.6,474.6L55.9,471.7L52.9,471.5L49.5,474.8L46.6,474.6L43.8,472.5L41.0,470.0L38.0,469.3L35.0,470.0L31.9,470.6L28.8,471.6L25.8,471.2L23.1,467.9L20.1,468.0L17.1,467.7L14.2,467.1L11.0,469.0L13.5,466.4L11.0,463.0L13.4,460.4L13.4,457.4L12.3,454.2L13.0,451.3L14.0,448.5L16.2,445.8L16.2,442.8L17.0,440.0L16.0,436.8L16.9,433.9L19.7,431.4L16.9,427.9L17.6,425.0L19.4,422.3L18.5,419.2L21.2,416.6L22.1,413.8L19.6,410.3L21.7,407.7L21.8,404.7L21.3,401.6L24.8,399.2L25.4,396.3L23.5,393.0L23.6,390.0L22.9,386.9L26.9,384.5L25.0,381.2L27.2,378.6L28.0,375.7L27.8,372.7L28.2,369.7L26.7,366.5L28.4,363.7L30.3,361.1L30.0,358.0L28.7,355.2L30.1,352.0L28.9,349.2L27.9,346.4L29.7,343.1L27.5,340.5L27.8,337.4L27.4,334.5L26.9,331.6L26.4,328.7L24.8,325.9L23.6,323.1L23.3,320.2L22.8,317.3L22.5,314.3L23.6,311.2L21.6,308.5L23.5,305.2L21.0,302.6L22.2,299.5L22.7,296.4L19.6,293.9L21.9,290.5L18.1,288.1L19.9,284.9L20.7,281.8L16.1,279.5L19.8,275.9L18.2,273.2L17.5,270.3L14.4,267.8L17.2,264.4L17.3,261.4L15.9,258.6L16.5,255.5L12.1,253.2L11.7,250.3L11.8,247.3L11.7,244.3L11.4,241.4L14.0,238.0L12.6,235.2L10.8,232.5L11.2,229.4L10.7,226.5L10.0,223.6L11.4,220.4L10.7,217.6L7.9,215.0L8.0,212.0L8.0,209.0L10.6,206.3L9.1,203.2L11.1,200.4L9.3,197.2L10.5,194.4L9.5,191.3L10.2,188.3L10.4,185.4L10.6,182.4L11.9,179.6L12.4,176.7L15.0,174.0L14.7,171.0L12.4,167.7L14.6,165.0L14.1,161.9L14.9,159.0L17.3,156.3L15.7,153.1L16.8,150.3L16.1,147.2L14.6,144.0L17.7,141.4L17.5,138.4L16.9,135.3L16.4,132.3L18.3,129.5L16.7,126.3L18.4,123.6L19.7,120.7L22.0,118.0L18.5,114.6L22.2,112.1L20.5,108.9L22.9,106.2L23.4,103.3L22.5,100.1L20.7,96.9L23.6,94.3L24.0,91.4L25.6,88.6L25.0,85.5L22.3,82.2L25.4,79.6L24.5,76.5L24.0,73.4L27.5,70.9L25.2,67.6L28.4,65.0L27.1,61.8L28.4,59.0L30.1,56.2L29.4,53.1L28.1,50.0L29.4,47.2L29.9,44.2L27.8,41.0L31.3,38.4L32.5,35.6L32.8,32.6L29.7,29.2L30.0,26.3L33.7,23.8L34.1,20.8L31.6,17.5L31.8,14.6L32.8,11.7L33.7,8.8L34.8,6.0L35.8,3.1Z" fill="white"/><path d="M59.3,15.8L62.3,15.2L65.1,17.4L68.1,17.5L71.2,15.3L74.0,17.2L77.0,17.2L80.0,16.2L82.9,17.6L85.8,18.3L88.9,15.8L91.7,18.8L94.7,18.6L97.7,17.5L100.7,17.3L103.6,18.8L106.5,19.2L109.6,17.6L112.4,19.4L115.4,19.6L118.3,20.2L121.4,17.9L124.4,17.5L127.4,17.9L130.3,18.0L133.2,18.5L136.2,18.9L139.0,21.4L142.1,20.0L145.0,19.9L147.9,21.3L151.0,19.4L153.8,21.6L156.8,22.2L159.7,22.7L162.7,22.0L165.7,20.6L168.6,23.1L171.7,20.8L174.6,21.2L177.5,21.9L180.4,23.2L183.4,22.6L186.4,23.3L189.3,23.2L192.3,22.6L195.4,21.4L198.2,24.1L201.1,24.6L204.1,23.6L207.2,22.3L210.1,23.3L213.0,25.0L215.9,24.6L218.9,24.8L221.9,23.7L224.8,25.0L227.9,23.2L230.8,23.4L233.8,23.4L236.6,26.0L239.6,25.6L242.5,26.8L245.6,24.1L248.5,24.7L251.5,25.8L254.4,24.9L257.4,26.4L260.3,24.6L263.3,25.3L266.2,25.5L269.2,25.8L272.2,25.7L275.1,25.2L278.1,25.0L280.9,23.8L283.9,24.1L286.9,24.1L289.7,22.0L292.7,23.1L295.7,23.3L298.6,22.9L301.5,21.6L304.4,20.5L307.4,21.5L310.3,20.7L313.3,20.1L316.2,19.8L319.2,21.0L322.2,21.3L325.2,21.8L328.2,21.7L331.1,21.5L333.9,18.8L336.9,19.4L339.8,18.8L342.8,19.4L345.9,21.1L348.8,20.4L351.8,20.3L354.5,17.3L357.7,20.1L360.5,17.6L363.6,19.6L366.5,18.4L369.3,17.1L372.3,17.6L375.4,16.7L378.0,19.8L381.1,19.2L384.2,18.2L387.2,18.6L389.9,21.0L393.0,19.4L395.9,20.6L398.9,20.3L401.9,20.4L404.6,22.8L407.9,20.3L410.8,20.7L413.7,21.1L416.5,22.7L419.3,24.4L422.4,24.1L425.5,23.2L428.4,23.7L431.3,24.3L434.1,26.1L437.1,26.0L439.9,27.4L443.0,26.2L445.8,27.6L449.0,25.8L451.8,27.3L454.9,26.9L457.9,27.1L460.7,28.5L463.6,28.9L466.4,30.1L469.4,30.1L472.3,31.5L475.5,29.7L478.4,29.9L481.4,30.0L484.3,30.9L487.1,32.0L490.2,31.4L492.9,33.4L496.1,32.1L499.1,32.2L501.9,33.4L504.8,33.9L507.8,33.8L510.7,35.2L513.6,35.3L516.7,34.6L519.7,34.3L522.7,34.6L525.2,38.1L528.6,35.4L531.4,36.5L534.4,36.1L537.1,39.0L540.2,37.6L543.0,39.8L546.2,38.0L549.1,38.9L552.0,39.2L554.9,39.6L557.7,41.8L560.8,40.7L563.7,40.2L566.7,40.3L569.6,39.5L572.7,40.2L575.4,37.7L578.2,36.8L581.4,37.6L584.2,36.3L587.0,35.5L590.2,36.3L593.3,36.7L596.2,36.3L599.1,35.3L602.0,34.7L604.8,33.3L608.0,34.8L610.7,32.9L613.4,30.9L616.4,30.4L619.5,31.2L622.2,29.3L625.1,28.8L628.4,30.2L631.2,28.9L634.5,30.6L637.2,29.1L640.2,28.9L643.3,29.1L645.8,26.2L649.0,27.3L652.1,27.7L654.8,25.7L657.9,26.3L660.8,25.8L663.6,24.5L666.3,22.6L669.3,22.3L672.6,24.5L675.6,24.0L678.5,23.5L681.1,20.6L684.2,21.3L686.8,19.0L689.9,19.2L693.2,20.9L696.1,20.3L699.1,20.2L701.7,17.8L704.6,17.4L707.8,18.1L710.7,17.6L713.4,15.4L716.7,17.2L719.6,17.0L722.5,16.0L725.4,15.6L728.2,14.3L731.3,14.8L734.3,14.3L737.0,12.4L740.1,13.0L742.9,11.5L745.6,10.1L748.6,9.7L751.7,10.1L754.6,9.7L757.6,9.6L760.4,11.3L763.5,10.7L766.3,11.6L769.4,11.1L772.3,12.1L774.9,14.3L778.2,12.5L780.9,14.3L784.0,14.0L786.6,16.0L789.9,14.1L792.6,15.9L795.5,16.8L798.7,15.8L801.6,16.1L804.5,16.9L807.3,17.8L810.1,19.2L813.1,19.1L816.3,18.0L819.0,19.9L821.9,20.6L825.1,19.2L828.0,19.6L830.7,22.0L833.7,22.0L836.4,23.5L839.8,21.0L842.3,24.1L845.5,23.0L848.4,23.5L851.1,25.5L854.1,25.3L857.1,25.6L860.2,24.9L863.2,25.2L865.8,27.3L868.9,26.9L871.6,28.7L874.7,28.4L877.4,29.8L880.6,28.9L883.3,30.5L886.3,30.4L889.1,31.8L892.3,30.4L895.2,31.1L898.1,31.9L901.0,32.7L904.2,31.0L906.8,33.6L909.9,33.3L912.7,34.4L915.6,34.9L918.5,35.8L921.7,34.6L924.7,34.3L927.6,35.0L930.3,36.7L933.1,38.4L936.5,35.9L939.1,38.0L942.0,39.1L945.1,38.3L947.7,40.4L951.0,38.6L953.6,41.3L956.6,41.5L959.4,42.3L962.6,41.3L965.5,41.7L965.4,44.7L965.2,47.7L962.8,50.3L962.4,53.3L964.3,56.7L963.6,59.6L961.6,62.2L959.9,64.9L959.9,68.0L959.9,71.0L959.1,73.9L958.2,76.8L959.3,80.0L957.9,82.8L956.0,85.5L956.2,88.5L955.5,91.5L955.1,94.4L955.3,97.5L954.8,100.4L952.9,103.1L954.5,106.5L951.2,108.9L951.0,111.9L952.7,115.2L950.8,117.9L949.2,120.7L950.3,123.9L949.2,126.7L948.8,129.7L949.3,132.8L952.3,134.7L954.5,136.9L953.0,141.0L956.5,142.6L956.1,146.1L958.5,148.3L961.4,150.2L960.1,154.2L961.5,156.8L962.7,159.6L964.8,161.9L966.5,164.3L968.9,166.4L968.9,169.9L970.5,172.4L972.7,174.6L974.8,176.9L973.6,180.9L976.7,182.6L976.8,186.0L980.2,187.5L981.5,190.2L981.9,193.4L983.3,196.1L984.7,198.7L985.6,202.0L983.4,204.5L983.3,207.5L982.4,210.4L980.0,212.9L979.7,215.9L979.2,218.8L979.4,221.9L977.1,224.4L977.7,227.6L977.6,230.7L977.6,233.7L977.5,236.7L975.4,239.3L973.1,241.8L974.0,245.1L974.4,248.2L973.2,251.0L971.4,253.6L970.5,256.5L970.2,259.5L968.9,262.2L970.9,265.7L969.8,268.5L967.7,271.1L968.8,274.4L966.7,277.0L964.7,279.6L965.6,282.8L963.9,285.5L963.2,288.4L963.9,291.6L962.6,294.4L963.5,297.6L962.4,300.4L961.7,303.3L961.2,306.2L959.4,308.9L959.2,311.9L959.5,314.8L958.2,317.8L959.7,320.7L958.9,323.7L960.2,326.6L958.9,329.6L958.8,332.6L959.5,335.5L961.6,338.4L960.7,341.4L961.6,344.3L962.0,347.3L962.6,350.2L961.1,353.2L960.5,356.2L961.7,359.1L963.0,362.1L961.4,365.1L961.4,368.0L963.3,370.9L962.6,373.9L961.7,376.9L961.8,379.9L962.9,382.8L962.3,385.8L964.2,388.7L963.4,391.7L962.6,394.6L964.2,397.5L961.5,400.6L962.4,403.5L962.7,406.5L963.5,409.4L961.9,412.4L963.6,415.3L965.4,418.2L963.9,421.2L963.2,424.2L964.4,427.2L964.8,430.1L966.0,433.0L964.1,436.1L964.3,439.0L963.8,442.0L965.1,444.9L964.2,447.9L965.9,450.8L966.2,453.7L964.6,456.8L963.9,459.8L965.6,462.6L967.1,465.5L964.6,468.6L965.9,471.5L962.9,470.3L959.9,471.1L956.9,472.3L954.0,470.2L951.0,472.5L948.0,470.3L945.0,472.3L942.0,470.9L939.0,473.2L936.0,471.1L933.0,471.8L930.1,470.7L927.1,472.9L924.1,471.0L921.1,472.0L918.1,470.8L915.1,472.0L912.1,470.8L909.2,472.1L906.2,471.0L903.2,470.2L900.2,472.6L897.2,470.4L894.2,470.5L891.2,470.9L888.2,470.1L885.3,470.8L882.3,470.9L879.3,471.8L876.3,470.4L873.3,470.2L870.3,470.0L867.3,472.1L864.3,471.1L861.4,470.1L858.4,470.2L855.4,470.8L852.4,471.9L849.4,470.5L846.4,471.0L843.4,472.6L840.5,470.9L837.5,470.5L834.5,470.1L831.5,471.7L828.5,470.3L825.5,470.3L822.5,473.1L819.5,472.4L816.6,471.6L813.6,470.2L810.6,471.6L807.6,471.7L804.6,470.5L801.6,471.9L798.6,472.1L795.7,472.5L792.7,472.3L789.7,470.0L786.7,469.7L783.7,470.7L780.7,472.1L777.7,472.8L774.7,472.6L771.8,470.6L768.8,471.3L766.0,472.9L762.8,471.2L760.0,472.2L757.1,472.6L754.1,472.5L751.1,471.5L748.5,474.9L745.4,473.3L742.4,473.7L739.6,475.0L736.8,476.2L733.6,473.7L730.9,476.8L727.9,476.3L725.1,477.0L722.0,475.6L719.0,475.7L716.3,477.7L713.2,476.5L710.3,476.9L707.3,476.9L704.4,477.3L701.6,478.4L698.7,478.9L695.6,478.2L692.8,479.5L689.9,479.9L687.0,480.3L683.9,479.2L681.2,481.2L678.1,479.7L675.2,480.2L672.4,482.2L669.5,482.2L666.3,480.4L663.5,481.0L660.5,480.8L657.8,483.7L654.9,483.6L652.0,484.5L649.1,484.9L646.2,485.1L643.0,483.0L640.3,486.0L637.3,484.8L634.3,484.6L631.2,484.5L628.4,483.4L625.2,484.3L622.6,481.3L619.5,481.5L616.6,481.2L613.3,483.0L610.3,482.7L607.6,480.6L604.8,478.7L601.4,481.2L598.7,479.0L595.6,479.5L592.9,477.2L589.7,478.2L586.6,479.1L583.9,476.8L581.1,475.4L578.0,475.2L574.8,477.1L571.8,476.6L568.8,476.5L565.8,476.1L563.1,474.2L560.3,472.4L556.9,475.2L554.3,472.0L551.2,472.0L547.9,474.1L545.2,471.9L542.1,472.4L539.2,471.9L536.3,470.8L533.3,470.4L530.1,471.5L527.6,468.2L524.6,468.0L521.6,467.3L518.5,468.2L515.4,468.6L512.7,466.4L509.7,466.0L506.5,467.2L503.5,467.0L500.7,465.7L497.6,466.0L494.5,466.5L491.8,464.5L488.8,464.2L485.9,463.3L483.0,462.2L480.1,461.5L476.8,463.5L473.9,462.6L470.8,463.1L467.8,462.6L464.9,461.6L462.0,460.6L459.4,462.5L456.3,462.0L453.0,461.0L450.6,464.1L447.3,463.0L444.6,464.3L442.0,466.3L439.0,466.9L436.2,467.8L432.9,466.5L429.7,466.1L427.4,469.6L424.1,468.1L421.6,470.8L418.1,468.6L415.8,472.2L412.7,471.8L409.4,470.7L406.5,471.5L404.0,473.8L400.7,472.7L397.8,473.6L395.2,475.6L392.0,474.7L389.3,476.5L386.6,478.1L383.4,477.2L380.8,479.3L377.5,478.0L374.7,479.2L371.5,478.4L369.0,481.1L365.9,480.8L362.8,480.5L359.8,480.9L357.2,482.9L354.3,483.3L351.5,484.5L348.6,485.4L345.8,486.3L342.5,485.1L340.1,488.4L336.9,487.5L333.7,486.7L331.2,489.3L328.2,489.4L325.3,488.1L322.3,488.0L319.3,487.7L316.5,486.4L313.3,487.5L310.2,488.5L307.3,487.0L304.2,488.2L301.5,485.6L298.5,485.0L295.3,486.6L292.5,484.7L289.4,486.0L286.6,484.2L283.7,483.4L280.5,484.6L277.6,483.5L274.5,484.6L271.8,482.0L268.5,483.9L265.8,481.1L262.6,483.2L259.8,481.3L257.0,479.7L253.8,480.6L251.0,479.2L248.1,478.4L244.9,479.6L242.0,479.1L239.0,478.4L235.8,480.1L232.9,479.0L229.9,479.4L227.0,478.6L224.2,476.1L221.2,476.8L218.3,475.1L215.1,477.1L212.3,475.6L209.1,476.6L206.1,476.9L203.3,475.0L200.3,474.7L197.4,473.9L194.3,474.3L191.2,475.2L188.6,471.6L185.3,473.8L182.4,473.5L179.3,473.6L176.5,472.3L173.4,473.0L170.4,472.6L167.6,471.1L164.5,471.5L161.8,468.8L158.8,468.5L155.7,469.7L152.6,470.7L149.7,469.1L146.8,468.8L144.0,466.8L140.8,468.5L137.7,469.0L135.0,466.6L132.0,465.8L129.1,465.3L125.9,467.2L122.8,467.2L120.2,463.7L117.2,464.2L113.9,466.0L111.1,464.6L108.0,465.3L105.0,465.2L102.1,464.5L99.1,464.1L96.1,463.8L93.4,460.8L90.4,461.0L87.2,462.8L84.3,461.9L81.4,461.1L78.4,460.3L75.3,461.3L72.6,458.5L69.3,461.0L66.4,460.1L63.5,459.6L60.4,460.1L57.4,459.7L54.6,457.8L51.7,457.2L48.8,456.0L45.6,457.3L42.9,455.1L39.6,457.2L36.6,457.1L33.7,456.3L30.7,456.4L27.9,454.7L27.5,451.5L30.6,449.1L29.8,445.9L31.9,443.3L30.3,439.8L31.5,437.0L31.3,433.9L34.6,431.6L34.8,428.6L34.9,425.5L35.5,422.6L34.2,419.2L37.6,416.9L37.3,413.8L37.7,410.8L39.2,408.0L40.5,405.3L39.3,401.9L39.8,399.0L39.9,395.9L40.6,393.0L43.2,390.5L42.7,387.3L44.0,384.6L43.0,381.2L45.4,378.7L44.2,375.4L45.7,372.6L47.5,370.0L48.1,367.0L46.6,363.6L50.1,361.3L48.8,358.0L50.7,355.3L49.4,352.0L51.2,349.3L52.6,346.5L52.5,343.4L51.7,340.2L54.0,337.6L53.3,334.7L52.7,331.8L52.1,328.9L49.9,326.5L49.0,323.6L48.4,320.8L48.0,317.8L47.1,315.0L45.1,312.5L46.4,309.0L45.4,306.2L44.7,303.3L43.1,300.7L43.4,297.5L39.7,295.5L40.4,292.2L39.4,289.4L37.4,287.0L36.2,284.2L37.1,280.9L37.3,277.7L35.1,275.3L35.1,272.2L33.8,269.5L32.6,266.7L32.3,263.8L31.8,260.8L29.6,258.4L30.7,254.9L28.4,252.5L26.7,250.0L26.6,246.9L24.7,244.4L26.2,240.9L25.1,238.1L22.2,235.9L23.1,232.5L21.8,229.8L20.0,227.3L20.1,224.1L18.8,221.4L18.1,218.6L18.5,215.6L19.7,212.8L20.9,209.9L21.0,206.9L20.6,203.8L20.6,200.7L22.1,198.0L22.4,195.0L23.5,192.1L25.2,189.4L25.5,186.4L23.6,183.0L27.0,180.6L27.9,177.7L27.1,174.5L26.0,171.2L26.6,168.3L28.9,165.7L29.9,162.8L29.3,159.6L30.0,156.7L29.8,153.6L31.5,150.9L33.5,148.2L33.8,145.2L34.9,142.4L34.5,139.3L35.1,136.3L36.6,133.6L36.9,130.6L36.2,127.4L37.9,124.7L36.7,121.4L38.5,118.7L38.0,115.5L38.7,112.6L38.9,109.6L41.6,107.1L40.0,103.7L41.7,100.9L41.6,97.9L42.9,95.1L44.8,92.4L43.2,89.0L44.9,86.3L46.4,83.5L46.9,80.6L47.7,77.7L47.6,74.6L46.9,71.4L49.9,68.9L49.7,65.9L48.9,62.6L49.6,59.7L50.4,56.8L50.6,53.8L51.5,50.9L51.6,47.9L54.7,45.5L52.7,42.0L54.9,39.4L54.7,36.3L56.3,33.5L55.1,30.2L57.3,27.6L59.0,24.9L58.2,21.7L59.1,18.8Z" fill="black"/></mask><linearGradient id="p" x2=".8" y2="1"><stop stop-color="#e8e0cf"/><stop offset=".4" stop-color="#bdb19c"/><stop offset=".46" stop-color="#f2eadb"/><stop offset="1" stop-color="#d6c9b5"/></linearGradient><pattern id="g" width="9" height="7" patternUnits="userSpaceOnUse"><circle cx="2" cy="3" r=".8" fill="#4e493e"/><path d="M6 0l-1 4" stroke="#665d4b" stroke-width=".5"/></pattern></defs><g mask="url(#m)"><path d="M35.0,0.0L38.1,-0.9L41.0,0.8L44.0,0.4L47.1,-0.3L49.8,2.4L53.1,-0.2L55.9,1.4L58.9,2.0L61.8,3.1L64.9,2.2L68.0,1.4L70.9,2.5L73.9,2.6L76.9,2.5L79.9,2.8L83.0,2.3L85.6,6.3L88.7,5.1L91.7,5.5L94.9,3.5L97.8,4.4L100.7,5.7L103.5,7.6L106.8,5.5L109.6,7.6L112.6,6.9L115.7,6.9L118.7,7.0L121.5,9.3L124.4,9.5L127.5,8.9L130.7,7.4L133.4,10.7L136.4,11.0L139.5,9.9L142.5,10.1L145.4,10.7L148.4,11.3L151.4,11.0L154.4,11.5L157.4,11.2L160.4,11.7L163.4,11.5L166.3,12.6L169.3,12.6L172.5,11.1L175.3,13.6L178.2,14.7L181.3,13.3L184.3,13.7L187.1,15.6L190.4,12.9L193.2,15.1L196.3,14.4L199.4,13.5L202.2,14.8L205.0,17.7L208.2,15.4L211.2,15.4L214.1,16.6L217.2,15.5L220.0,17.9L223.2,15.7L226.0,18.2L229.3,15.7L232.0,18.1L235.0,18.3L238.2,16.5L241.0,19.0L243.7,16.6L246.9,18.5L249.7,16.8L252.6,15.9L255.6,16.3L258.7,17.7L261.5,15.4L264.8,18.1L267.5,16.1L270.4,14.8L273.2,13.4L276.4,15.4L279.4,15.2L282.3,15.2L285.1,12.9L288.0,12.8L291.1,13.7L294.2,14.8L297.2,14.7L300.2,14.7L303.0,13.3L305.7,10.2L308.8,11.3L311.8,11.7L314.7,10.8L317.8,12.2L320.6,11.0L323.5,9.6L326.4,9.4L329.4,9.2L332.4,9.2L335.2,7.5L338.4,9.9L341.0,6.3L344.1,7.5L347.1,7.4L350.3,9.6L352.9,5.4L356.0,7.0L359.0,7.2L362.0,7.0L365.0,6.1L368.0,6.9L370.9,8.3L373.8,9.5L376.8,8.8L379.8,9.0L382.7,9.4L385.6,11.3L388.7,9.4L391.8,9.0L394.6,10.4L397.7,9.0L400.5,12.4L403.5,12.4L406.6,11.0L409.7,9.7L412.5,11.7L415.5,10.9L418.6,10.0L421.2,14.4L424.4,13.0L427.4,11.7L430.3,13.5L433.3,12.9L436.2,14.3L439.2,14.0L442.1,15.4L445.3,12.7L448.3,12.6L451.1,15.6L454.1,15.7L457.3,13.0L460.1,15.5L463.1,15.2L465.9,17.9L468.9,17.3L472.1,14.1L474.9,17.3L477.9,17.7L481.1,14.8L483.9,17.2L486.8,18.2L490.0,15.6L492.7,19.5L495.8,17.3L498.7,18.3L501.6,20.5L504.6,20.0L507.5,20.7L510.8,17.8L513.6,19.5L516.8,17.6L519.5,21.2L522.4,21.8L525.4,22.1L528.5,20.1L531.5,20.5L534.3,22.5L537.3,22.5L540.4,21.4L543.5,20.0L546.3,23.0L549.3,22.1L552.4,20.8L555.2,23.0L558.2,23.8L561.1,24.0L564.1,24.5L567.0,25.2L570.2,23.3L573.2,22.6L576.2,23.3L579.2,22.6L581.9,26.0L585.0,25.0L587.7,22.8L591.0,24.9L593.8,23.2L596.6,21.5L599.6,21.9L602.5,20.9L605.6,22.3L608.8,23.4L611.4,20.3L614.6,22.1L617.7,22.8L620.4,20.9L623.5,21.8L626.3,19.5L629.4,20.7L632.1,18.4L634.9,16.8L638.0,17.6L641.3,19.7L644.0,17.8L647.1,18.2L649.8,16.2L653.1,18.6L655.8,16.0L658.7,15.7L661.6,14.6L664.8,16.4L667.7,15.8L670.4,13.1L673.4,13.1L676.7,15.7L679.4,13.2L682.3,12.5L685.3,12.5L688.5,14.0L691.4,13.6L693.9,9.7L697.0,10.2L699.9,9.6L702.8,8.5L706.2,11.8L709.0,10.3L711.7,7.6L714.9,9.5L718.0,10.4L720.9,10.0L723.9,9.7L726.8,8.9L729.7,8.3L732.8,9.2L735.6,7.9L738.6,7.8L741.4,5.6L744.5,6.7L747.1,3.9L750.4,5.8L753.2,4.8L756.3,5.7L759.3,5.2L762.1,3.6L765.0,3.0L767.8,4.6L770.9,4.1L774.1,2.8L776.8,5.5L779.8,5.7L782.8,5.3L785.8,5.7L788.7,6.5L791.7,6.7L794.5,8.9L797.4,9.3L800.6,8.0L803.4,9.7L806.7,8.0L809.4,10.0L812.8,7.1L815.7,7.9L818.8,7.7L821.5,9.9L824.2,12.8L827.2,12.4L830.6,9.5L833.6,10.2L836.1,13.8L839.5,11.2L842.5,11.1L845.5,11.4L848.4,12.2L850.9,16.1L854.1,14.9L857.3,13.5L860.0,16.3L863.0,16.6L865.9,17.2L869.0,16.4L871.9,17.4L874.8,18.4L878.2,16.0L880.9,18.1L884.0,17.6L886.6,20.9L890.0,18.2L892.8,19.3L895.8,20.1L899.0,18.5L901.8,20.0L904.8,20.6L907.5,23.2L910.6,22.3L913.8,20.8L916.6,22.2L919.4,24.0L922.6,22.6L925.7,22.7L928.3,25.4L931.2,26.8L934.4,25.4L937.5,24.8L940.2,27.2L943.1,27.9L946.1,28.1L949.4,25.9L952.5,25.8L955.1,28.8L958.2,28.4L961.3,27.6L964.0,30.0L967.2,28.4L970.1,29.4L972.8,32.0L975.8,31.9L979.1,30.2L982.0,31.0L979.9,33.8L979.9,36.8L981.9,40.0L980.0,42.8L978.5,45.6L980.8,48.9L979.4,51.7L977.8,54.5L977.0,57.4L978.1,60.6L979.4,63.7L980.2,66.8L978.3,69.6L977.5,72.5L978.8,75.6L979.0,78.7L975.7,81.3L977.5,84.5L974.2,87.1L974.3,90.1L976.4,93.4L974.6,96.2L975.8,99.3L975.9,102.3L972.8,105.0L972.4,107.9L973.8,111.1L973.0,114.0L975.6,116.3L974.1,119.7L974.3,122.6L978.3,124.5L976.8,128.0L979.4,130.3L978.5,133.5L981.4,135.7L981.3,138.7L982.3,141.5L983.7,144.1L984.2,146.9L983.0,150.3L983.3,153.2L984.7,155.8L984.2,158.9L984.7,161.8L989.2,163.6L986.2,167.4L989.4,169.5L991.4,172.0L989.9,175.4L991.0,178.1L992.6,180.7L994.4,183.1L993.6,186.4L993.8,189.3L995.0,192.0L992.6,194.6L996.1,198.1L994.8,200.9L993.5,203.7L994.8,206.8L994.0,209.7L989.8,212.1L991.9,215.3L992.7,218.4L990.0,221.0L989.0,223.8L988.3,226.7L991.8,230.2L990.9,233.0L989.6,235.8L987.1,238.4L986.2,241.3L988.2,244.5L985.0,247.0L984.5,249.9L987.7,253.4L986.4,256.1L986.0,259.1L983.5,261.7L986.1,265.0L984.0,267.7L982.1,270.4L982.1,273.4L983.3,276.5L981.2,279.2L982.2,282.3L982.1,285.2L979.0,287.8L980.1,290.9L978.0,293.6L978.6,296.6L977.4,299.4L977.1,302.4L978.7,305.6L979.3,308.6L979.3,311.6L978.6,314.5L978.0,317.3L975.3,319.9L976.0,323.0L976.0,326.0L975.3,329.0L978.2,331.8L976.8,334.9L975.6,338.0L977.7,340.8L976.6,343.8L980.1,346.5L976.4,349.8L978.0,352.7L979.1,355.6L978.0,358.7L977.4,361.7L981.1,364.4L981.4,367.3L978.8,370.5L978.2,373.6L981.4,376.3L980.4,379.4L981.0,382.3L982.5,385.2L980.5,388.3L981.4,391.2L979.7,394.3L982.0,397.1L980.9,400.2L980.8,403.2L982.6,406.0L983.6,408.9L982.1,412.1L985.4,414.8L983.5,417.9L982.6,421.0L985.5,423.7L985.7,426.7L986.3,429.6L985.9,432.6L983.1,435.9L983.8,438.8L984.4,441.7L988.2,444.4L984.5,447.7L987.0,450.5L987.2,453.4L986.4,456.5L989.6,459.2L987.5,462.4L985.9,465.5L986.2,468.4L987.2,471.3L987.2,474.3L989.6,477.1L988.1,480.2L991.5,482.9L990.1,486.0L990.2,489.0L990.0,492.0L987.1,490.7L984.0,492.1L981.0,493.0L978.2,489.2L975.0,493.2L972.1,491.5L969.1,491.8L966.1,492.3L963.4,488.6L960.2,491.7L957.3,490.3L954.2,491.8L951.4,489.5L948.5,488.2L945.5,487.7L942.4,490.4L939.6,487.4L936.5,488.8L933.5,489.2L930.6,487.2L927.5,490.4L924.6,488.1L921.6,489.3L918.6,490.1L915.6,489.8L912.8,486.3L909.8,487.2L906.9,485.2L903.8,486.9L900.7,488.6L897.9,486.4L894.8,487.8L892.0,484.6L888.9,487.2L885.9,487.6L883.0,487.0L880.1,484.3L877.0,486.1L874.2,483.4L871.2,484.3L868.2,483.9L865.2,483.7L862.2,485.8L859.2,484.8L856.2,486.4L853.3,483.4L850.5,481.8L847.3,484.5L844.3,485.0L841.5,481.6L838.5,482.9L835.4,485.1L832.5,483.0L829.5,482.9L826.6,481.0L823.5,483.3L820.5,484.4L817.7,481.5L814.8,480.4L811.6,483.7L808.6,483.8L805.7,481.8L802.7,483.2L799.8,480.4L796.9,480.2L793.8,482.4L791.0,479.2L787.9,480.9L784.8,482.2L781.9,480.6L779.0,480.0L776.1,480.5L773.5,483.1L770.5,482.5L767.2,480.7L764.4,481.6L761.8,484.4L758.7,483.6L756.0,485.4L753.0,484.9L749.6,482.2L747.3,486.4L744.1,485.0L741.5,487.4L738.3,486.0L735.1,484.9L732.2,485.2L729.8,488.8L726.7,487.9L723.8,488.8L721.1,490.4L718.2,490.9L715.2,490.9L712.1,489.7L709.5,492.2L706.3,490.6L703.2,490.1L700.7,493.5L697.4,491.0L695.0,495.0L691.7,492.5L688.6,491.8L686.0,494.5L683.0,494.0L680.4,496.3L677.5,497.4L674.4,496.1L671.7,498.3L668.4,496.2L665.8,498.1L662.8,497.9L659.7,497.6L657.2,500.8L654.0,499.0L651.0,499.8L647.9,500.8L645.0,499.7L642.3,496.8L639.3,496.5L636.1,498.9L633.2,497.9L630.4,495.8L627.4,496.3L624.5,495.6L621.4,496.6L618.5,495.8L615.7,494.4L612.5,496.4L609.6,495.0L606.7,494.0L603.8,493.3L600.6,496.7L597.9,493.3L594.8,494.6L592.0,491.9L589.0,492.4L585.9,494.2L583.2,490.9L580.2,490.9L577.2,490.9L574.1,492.0L571.1,493.1L568.3,490.9L565.4,489.6L562.3,491.3L559.2,492.4L556.3,491.2L553.5,489.0L550.6,488.1L547.5,490.2L544.5,490.2L541.4,491.6L538.6,488.9L535.7,488.5L532.9,486.8L529.6,489.9L526.7,489.6L524.0,486.4L520.8,488.5L518.0,486.5L514.8,488.7L512.0,487.2L509.0,486.8L506.2,485.3L503.2,484.7L500.0,487.6L497.2,486.3L494.0,487.8L491.4,484.3L488.2,485.9L485.3,485.9L482.4,484.8L479.5,483.7L476.3,486.4L473.5,483.5L470.6,483.1L467.5,484.1L464.6,483.8L461.8,480.9L458.9,481.0L455.8,481.5L452.9,481.4L449.9,480.9L446.9,481.3L444.0,481.0L440.9,482.4L438.0,481.0L435.0,480.6L432.3,482.8L429.2,481.9L426.1,481.3L423.6,484.8L420.6,484.8L417.5,483.8L414.9,486.3L411.6,484.6L409.0,487.0L405.8,485.8L402.6,484.2L400.0,486.9L397.2,488.0L394.1,487.4L390.9,485.8L388.2,487.6L385.4,489.1L382.5,489.5L379.4,489.1L376.8,491.3L373.7,490.8L370.8,491.6L368.0,492.4L364.8,491.1L361.7,490.4L358.9,491.7L356.1,492.7L353.3,494.4L350.4,495.1L347.5,495.3L344.6,496.2L341.2,493.0L338.2,492.8L335.9,497.7L332.6,495.5L330.0,498.4L327.0,498.1L324.0,498.4L321.0,498.0L318.0,498.0L315.0,497.8L312.3,495.2L309.0,497.4L306.1,496.9L303.0,497.3L300.2,495.7L297.0,497.4L294.2,495.3L291.0,497.1L288.1,496.6L285.1,496.0L282.1,496.1L279.3,493.4L276.4,492.8L273.1,495.5L270.2,494.2L267.3,494.0L264.4,492.7L261.5,490.7L258.3,493.4L255.6,490.0L252.4,492.2L249.5,491.4L246.3,493.1L243.5,490.8L240.3,492.6L237.6,490.0L234.4,491.4L231.5,490.8L228.4,491.5L225.8,487.7L222.6,489.6L219.6,489.1L216.7,487.7L213.8,486.6L210.6,489.1L207.8,487.2L204.9,485.6L201.9,485.0L198.9,485.0L195.6,488.1L192.7,487.6L189.8,486.4L186.7,487.7L183.9,484.5L180.9,485.2L177.9,484.5L174.9,484.8L172.1,483.1L168.8,486.0L166.2,481.8L163.1,482.8L160.2,481.5L157.0,483.0L154.3,480.3L151.2,481.2L148.1,481.5L145.3,480.3L142.3,479.6L139.1,481.7L136.0,482.7L133.0,482.8L130.3,479.4L127.4,478.4L124.4,478.6L121.2,480.2L118.4,478.3L115.3,479.0L112.5,476.6L109.5,476.5L106.2,480.2L103.5,477.0L100.5,476.7L97.3,478.5L94.4,477.6L91.7,474.7L88.6,475.6L85.6,475.0L82.3,478.0L79.4,477.5L76.7,474.4L73.5,475.7L70.8,473.2L67.5,475.3L64.5,475.2L61.7,473.3L58.6,474.6L55.9,471.7L52.9,471.5L49.5,474.8L46.6,474.6L43.8,472.5L41.0,470.0L38.0,469.3L35.0,470.0L31.9,470.6L28.8,471.6L25.8,471.2L23.1,467.9L20.1,468.0L17.1,467.7L14.2,467.1L11.0,469.0L13.5,466.4L11.0,463.0L13.4,460.4L13.4,457.4L12.3,454.2L13.0,451.3L14.0,448.5L16.2,445.8L16.2,442.8L17.0,440.0L16.0,436.8L16.9,433.9L19.7,431.4L16.9,427.9L17.6,425.0L19.4,422.3L18.5,419.2L21.2,416.6L22.1,413.8L19.6,410.3L21.7,407.7L21.8,404.7L21.3,401.6L24.8,399.2L25.4,396.3L23.5,393.0L23.6,390.0L22.9,386.9L26.9,384.5L25.0,381.2L27.2,378.6L28.0,375.7L27.8,372.7L28.2,369.7L26.7,366.5L28.4,363.7L30.3,361.1L30.0,358.0L28.7,355.2L30.1,352.0L28.9,349.2L27.9,346.4L29.7,343.1L27.5,340.5L27.8,337.4L27.4,334.5L26.9,331.6L26.4,328.7L24.8,325.9L23.6,323.1L23.3,320.2L22.8,317.3L22.5,314.3L23.6,311.2L21.6,308.5L23.5,305.2L21.0,302.6L22.2,299.5L22.7,296.4L19.6,293.9L21.9,290.5L18.1,288.1L19.9,284.9L20.7,281.8L16.1,279.5L19.8,275.9L18.2,273.2L17.5,270.3L14.4,267.8L17.2,264.4L17.3,261.4L15.9,258.6L16.5,255.5L12.1,253.2L11.7,250.3L11.8,247.3L11.7,244.3L11.4,241.4L14.0,238.0L12.6,235.2L10.8,232.5L11.2,229.4L10.7,226.5L10.0,223.6L11.4,220.4L10.7,217.6L7.9,215.0L8.0,212.0L8.0,209.0L10.6,206.3L9.1,203.2L11.1,200.4L9.3,197.2L10.5,194.4L9.5,191.3L10.2,188.3L10.4,185.4L10.6,182.4L11.9,179.6L12.4,176.7L15.0,174.0L14.7,171.0L12.4,167.7L14.6,165.0L14.1,161.9L14.9,159.0L17.3,156.3L15.7,153.1L16.8,150.3L16.1,147.2L14.6,144.0L17.7,141.4L17.5,138.4L16.9,135.3L16.4,132.3L18.3,129.5L16.7,126.3L18.4,123.6L19.7,120.7L22.0,118.0L18.5,114.6L22.2,112.1L20.5,108.9L22.9,106.2L23.4,103.3L22.5,100.1L20.7,96.9L23.6,94.3L24.0,91.4L25.6,88.6L25.0,85.5L22.3,82.2L25.4,79.6L24.5,76.5L24.0,73.4L27.5,70.9L25.2,67.6L28.4,65.0L27.1,61.8L28.4,59.0L30.1,56.2L29.4,53.1L28.1,50.0L29.4,47.2L29.9,44.2L27.8,41.0L31.3,38.4L32.5,35.6L32.8,32.6L29.7,29.2L30.0,26.3L33.7,23.8L34.1,20.8L31.6,17.5L31.8,14.6L32.8,11.7L33.7,8.8L34.8,6.0L35.8,3.1Z" fill="url(#p)"/><path d="M35.0,0.0L38.1,-0.9L41.0,0.8L44.0,0.4L47.1,-0.3L49.8,2.4L53.1,-0.2L55.9,1.4L58.9,2.0L61.8,3.1L64.9,2.2L68.0,1.4L70.9,2.5L73.9,2.6L76.9,2.5L79.9,2.8L83.0,2.3L85.6,6.3L88.7,5.1L91.7,5.5L94.9,3.5L97.8,4.4L100.7,5.7L103.5,7.6L106.8,5.5L109.6,7.6L112.6,6.9L115.7,6.9L118.7,7.0L121.5,9.3L124.4,9.5L127.5,8.9L130.7,7.4L133.4,10.7L136.4,11.0L139.5,9.9L142.5,10.1L145.4,10.7L148.4,11.3L151.4,11.0L154.4,11.5L157.4,11.2L160.4,11.7L163.4,11.5L166.3,12.6L169.3,12.6L172.5,11.1L175.3,13.6L178.2,14.7L181.3,13.3L184.3,13.7L187.1,15.6L190.4,12.9L193.2,15.1L196.3,14.4L199.4,13.5L202.2,14.8L205.0,17.7L208.2,15.4L211.2,15.4L214.1,16.6L217.2,15.5L220.0,17.9L223.2,15.7L226.0,18.2L229.3,15.7L232.0,18.1L235.0,18.3L238.2,16.5L241.0,19.0L243.7,16.6L246.9,18.5L249.7,16.8L252.6,15.9L255.6,16.3L258.7,17.7L261.5,15.4L264.8,18.1L267.5,16.1L270.4,14.8L273.2,13.4L276.4,15.4L279.4,15.2L282.3,15.2L285.1,12.9L288.0,12.8L291.1,13.7L294.2,14.8L297.2,14.7L300.2,14.7L303.0,13.3L305.7,10.2L308.8,11.3L311.8,11.7L314.7,10.8L317.8,12.2L320.6,11.0L323.5,9.6L326.4,9.4L329.4,9.2L332.4,9.2L335.2,7.5L338.4,9.9L341.0,6.3L344.1,7.5L347.1,7.4L350.3,9.6L352.9,5.4L356.0,7.0L359.0,7.2L362.0,7.0L365.0,6.1L368.0,6.9L370.9,8.3L373.8,9.5L376.8,8.8L379.8,9.0L382.7,9.4L385.6,11.3L388.7,9.4L391.8,9.0L394.6,10.4L397.7,9.0L400.5,12.4L403.5,12.4L406.6,11.0L409.7,9.7L412.5,11.7L415.5,10.9L418.6,10.0L421.2,14.4L424.4,13.0L427.4,11.7L430.3,13.5L433.3,12.9L436.2,14.3L439.2,14.0L442.1,15.4L445.3,12.7L448.3,12.6L451.1,15.6L454.1,15.7L457.3,13.0L460.1,15.5L463.1,15.2L465.9,17.9L468.9,17.3L472.1,14.1L474.9,17.3L477.9,17.7L481.1,14.8L483.9,17.2L486.8,18.2L490.0,15.6L492.7,19.5L495.8,17.3L498.7,18.3L501.6,20.5L504.6,20.0L507.5,20.7L510.8,17.8L513.6,19.5L516.8,17.6L519.5,21.2L522.4,21.8L525.4,22.1L528.5,20.1L531.5,20.5L534.3,22.5L537.3,22.5L540.4,21.4L543.5,20.0L546.3,23.0L549.3,22.1L552.4,20.8L555.2,23.0L558.2,23.8L561.1,24.0L564.1,24.5L567.0,25.2L570.2,23.3L573.2,22.6L576.2,23.3L579.2,22.6L581.9,26.0L585.0,25.0L587.7,22.8L591.0,24.9L593.8,23.2L596.6,21.5L599.6,21.9L602.5,20.9L605.6,22.3L608.8,23.4L611.4,20.3L614.6,22.1L617.7,22.8L620.4,20.9L623.5,21.8L626.3,19.5L629.4,20.7L632.1,18.4L634.9,16.8L638.0,17.6L641.3,19.7L644.0,17.8L647.1,18.2L649.8,16.2L653.1,18.6L655.8,16.0L658.7,15.7L661.6,14.6L664.8,16.4L667.7,15.8L670.4,13.1L673.4,13.1L676.7,15.7L679.4,13.2L682.3,12.5L685.3,12.5L688.5,14.0L691.4,13.6L693.9,9.7L697.0,10.2L699.9,9.6L702.8,8.5L706.2,11.8L709.0,10.3L711.7,7.6L714.9,9.5L718.0,10.4L720.9,10.0L723.9,9.7L726.8,8.9L729.7,8.3L732.8,9.2L735.6,7.9L738.6,7.8L741.4,5.6L744.5,6.7L747.1,3.9L750.4,5.8L753.2,4.8L756.3,5.7L759.3,5.2L762.1,3.6L765.0,3.0L767.8,4.6L770.9,4.1L774.1,2.8L776.8,5.5L779.8,5.7L782.8,5.3L785.8,5.7L788.7,6.5L791.7,6.7L794.5,8.9L797.4,9.3L800.6,8.0L803.4,9.7L806.7,8.0L809.4,10.0L812.8,7.1L815.7,7.9L818.8,7.7L821.5,9.9L824.2,12.8L827.2,12.4L830.6,9.5L833.6,10.2L836.1,13.8L839.5,11.2L842.5,11.1L845.5,11.4L848.4,12.2L850.9,16.1L854.1,14.9L857.3,13.5L860.0,16.3L863.0,16.6L865.9,17.2L869.0,16.4L871.9,17.4L874.8,18.4L878.2,16.0L880.9,18.1L884.0,17.6L886.6,20.9L890.0,18.2L892.8,19.3L895.8,20.1L899.0,18.5L901.8,20.0L904.8,20.6L907.5,23.2L910.6,22.3L913.8,20.8L916.6,22.2L919.4,24.0L922.6,22.6L925.7,22.7L928.3,25.4L931.2,26.8L934.4,25.4L937.5,24.8L940.2,27.2L943.1,27.9L946.1,28.1L949.4,25.9L952.5,25.8L955.1,28.8L958.2,28.4L961.3,27.6L964.0,30.0L967.2,28.4L970.1,29.4L972.8,32.0L975.8,31.9L979.1,30.2L982.0,31.0L979.9,33.8L979.9,36.8L981.9,40.0L980.0,42.8L978.5,45.6L980.8,48.9L979.4,51.7L977.8,54.5L977.0,57.4L978.1,60.6L979.4,63.7L980.2,66.8L978.3,69.6L977.5,72.5L978.8,75.6L979.0,78.7L975.7,81.3L977.5,84.5L974.2,87.1L974.3,90.1L976.4,93.4L974.6,96.2L975.8,99.3L975.9,102.3L972.8,105.0L972.4,107.9L973.8,111.1L973.0,114.0L975.6,116.3L974.1,119.7L974.3,122.6L978.3,124.5L976.8,128.0L979.4,130.3L978.5,133.5L981.4,135.7L981.3,138.7L982.3,141.5L983.7,144.1L984.2,146.9L983.0,150.3L983.3,153.2L984.7,155.8L984.2,158.9L984.7,161.8L989.2,163.6L986.2,167.4L989.4,169.5L991.4,172.0L989.9,175.4L991.0,178.1L992.6,180.7L994.4,183.1L993.6,186.4L993.8,189.3L995.0,192.0L992.6,194.6L996.1,198.1L994.8,200.9L993.5,203.7L994.8,206.8L994.0,209.7L989.8,212.1L991.9,215.3L992.7,218.4L990.0,221.0L989.0,223.8L988.3,226.7L991.8,230.2L990.9,233.0L989.6,235.8L987.1,238.4L986.2,241.3L988.2,244.5L985.0,247.0L984.5,249.9L987.7,253.4L986.4,256.1L986.0,259.1L983.5,261.7L986.1,265.0L984.0,267.7L982.1,270.4L982.1,273.4L983.3,276.5L981.2,279.2L982.2,282.3L982.1,285.2L979.0,287.8L980.1,290.9L978.0,293.6L978.6,296.6L977.4,299.4L977.1,302.4L978.7,305.6L979.3,308.6L979.3,311.6L978.6,314.5L978.0,317.3L975.3,319.9L976.0,323.0L976.0,326.0L975.3,329.0L978.2,331.8L976.8,334.9L975.6,338.0L977.7,340.8L976.6,343.8L980.1,346.5L976.4,349.8L978.0,352.7L979.1,355.6L978.0,358.7L977.4,361.7L981.1,364.4L981.4,367.3L978.8,370.5L978.2,373.6L981.4,376.3L980.4,379.4L981.0,382.3L982.5,385.2L980.5,388.3L981.4,391.2L979.7,394.3L982.0,397.1L980.9,400.2L980.8,403.2L982.6,406.0L983.6,408.9L982.1,412.1L985.4,414.8L983.5,417.9L982.6,421.0L985.5,423.7L985.7,426.7L986.3,429.6L985.9,432.6L983.1,435.9L983.8,438.8L984.4,441.7L988.2,444.4L984.5,447.7L987.0,450.5L987.2,453.4L986.4,456.5L989.6,459.2L987.5,462.4L985.9,465.5L986.2,468.4L987.2,471.3L987.2,474.3L989.6,477.1L988.1,480.2L991.5,482.9L990.1,486.0L990.2,489.0L990.0,492.0L987.1,490.7L984.0,492.1L981.0,493.0L978.2,489.2L975.0,493.2L972.1,491.5L969.1,491.8L966.1,492.3L963.4,488.6L960.2,491.7L957.3,490.3L954.2,491.8L951.4,489.5L948.5,488.2L945.5,487.7L942.4,490.4L939.6,487.4L936.5,488.8L933.5,489.2L930.6,487.2L927.5,490.4L924.6,488.1L921.6,489.3L918.6,490.1L915.6,489.8L912.8,486.3L909.8,487.2L906.9,485.2L903.8,486.9L900.7,488.6L897.9,486.4L894.8,487.8L892.0,484.6L888.9,487.2L885.9,487.6L883.0,487.0L880.1,484.3L877.0,486.1L874.2,483.4L871.2,484.3L868.2,483.9L865.2,483.7L862.2,485.8L859.2,484.8L856.2,486.4L853.3,483.4L850.5,481.8L847.3,484.5L844.3,485.0L841.5,481.6L838.5,482.9L835.4,485.1L832.5,483.0L829.5,482.9L826.6,481.0L823.5,483.3L820.5,484.4L817.7,481.5L814.8,480.4L811.6,483.7L808.6,483.8L805.7,481.8L802.7,483.2L799.8,480.4L796.9,480.2L793.8,482.4L791.0,479.2L787.9,480.9L784.8,482.2L781.9,480.6L779.0,480.0L776.1,480.5L773.5,483.1L770.5,482.5L767.2,480.7L764.4,481.6L761.8,484.4L758.7,483.6L756.0,485.4L753.0,484.9L749.6,482.2L747.3,486.4L744.1,485.0L741.5,487.4L738.3,486.0L735.1,484.9L732.2,485.2L729.8,488.8L726.7,487.9L723.8,488.8L721.1,490.4L718.2,490.9L715.2,490.9L712.1,489.7L709.5,492.2L706.3,490.6L703.2,490.1L700.7,493.5L697.4,491.0L695.0,495.0L691.7,492.5L688.6,491.8L686.0,494.5L683.0,494.0L680.4,496.3L677.5,497.4L674.4,496.1L671.7,498.3L668.4,496.2L665.8,498.1L662.8,497.9L659.7,497.6L657.2,500.8L654.0,499.0L651.0,499.8L647.9,500.8L645.0,499.7L642.3,496.8L639.3,496.5L636.1,498.9L633.2,497.9L630.4,495.8L627.4,496.3L624.5,495.6L621.4,496.6L618.5,495.8L615.7,494.4L612.5,496.4L609.6,495.0L606.7,494.0L603.8,493.3L600.6,496.7L597.9,493.3L594.8,494.6L592.0,491.9L589.0,492.4L585.9,494.2L583.2,490.9L580.2,490.9L577.2,490.9L574.1,492.0L571.1,493.1L568.3,490.9L565.4,489.6L562.3,491.3L559.2,492.4L556.3,491.2L553.5,489.0L550.6,488.1L547.5,490.2L544.5,490.2L541.4,491.6L538.6,488.9L535.7,488.5L532.9,486.8L529.6,489.9L526.7,489.6L524.0,486.4L520.8,488.5L518.0,486.5L514.8,488.7L512.0,487.2L509.0,486.8L506.2,485.3L503.2,484.7L500.0,487.6L497.2,486.3L494.0,487.8L491.4,484.3L488.2,485.9L485.3,485.9L482.4,484.8L479.5,483.7L476.3,486.4L473.5,483.5L470.6,483.1L467.5,484.1L464.6,483.8L461.8,480.9L458.9,481.0L455.8,481.5L452.9,481.4L449.9,480.9L446.9,481.3L444.0,481.0L440.9,482.4L438.0,481.0L435.0,480.6L432.3,482.8L429.2,481.9L426.1,481.3L423.6,484.8L420.6,484.8L417.5,483.8L414.9,486.3L411.6,484.6L409.0,487.0L405.8,485.8L402.6,484.2L400.0,486.9L397.2,488.0L394.1,487.4L390.9,485.8L388.2,487.6L385.4,489.1L382.5,489.5L379.4,489.1L376.8,491.3L373.7,490.8L370.8,491.6L368.0,492.4L364.8,491.1L361.7,490.4L358.9,491.7L356.1,492.7L353.3,494.4L350.4,495.1L347.5,495.3L344.6,496.2L341.2,493.0L338.2,492.8L335.9,497.7L332.6,495.5L330.0,498.4L327.0,498.1L324.0,498.4L321.0,498.0L318.0,498.0L315.0,497.8L312.3,495.2L309.0,497.4L306.1,496.9L303.0,497.3L300.2,495.7L297.0,497.4L294.2,495.3L291.0,497.1L288.1,496.6L285.1,496.0L282.1,496.1L279.3,493.4L276.4,492.8L273.1,495.5L270.2,494.2L267.3,494.0L264.4,492.7L261.5,490.7L258.3,493.4L255.6,490.0L252.4,492.2L249.5,491.4L246.3,493.1L243.5,490.8L240.3,492.6L237.6,490.0L234.4,491.4L231.5,490.8L228.4,491.5L225.8,487.7L222.6,489.6L219.6,489.1L216.7,487.7L213.8,486.6L210.6,489.1L207.8,487.2L204.9,485.6L201.9,485.0L198.9,485.0L195.6,488.1L192.7,487.6L189.8,486.4L186.7,487.7L183.9,484.5L180.9,485.2L177.9,484.5L174.9,484.8L172.1,483.1L168.8,486.0L166.2,481.8L163.1,482.8L160.2,481.5L157.0,483.0L154.3,480.3L151.2,481.2L148.1,481.5L145.3,480.3L142.3,479.6L139.1,481.7L136.0,482.7L133.0,482.8L130.3,479.4L127.4,478.4L124.4,478.6L121.2,480.2L118.4,478.3L115.3,479.0L112.5,476.6L109.5,476.5L106.2,480.2L103.5,477.0L100.5,476.7L97.3,478.5L94.4,477.6L91.7,474.7L88.6,475.6L85.6,475.0L82.3,478.0L79.4,477.5L76.7,474.4L73.5,475.7L70.8,473.2L67.5,475.3L64.5,475.2L61.7,473.3L58.6,474.6L55.9,471.7L52.9,471.5L49.5,474.8L46.6,474.6L43.8,472.5L41.0,470.0L38.0,469.3L35.0,470.0L31.9,470.6L28.8,471.6L25.8,471.2L23.1,467.9L20.1,468.0L17.1,467.7L14.2,467.1L11.0,469.0L13.5,466.4L11.0,463.0L13.4,460.4L13.4,457.4L12.3,454.2L13.0,451.3L14.0,448.5L16.2,445.8L16.2,442.8L17.0,440.0L16.0,436.8L16.9,433.9L19.7,431.4L16.9,427.9L17.6,425.0L19.4,422.3L18.5,419.2L21.2,416.6L22.1,413.8L19.6,410.3L21.7,407.7L21.8,404.7L21.3,401.6L24.8,399.2L25.4,396.3L23.5,393.0L23.6,390.0L22.9,386.9L26.9,384.5L25.0,381.2L27.2,378.6L28.0,375.7L27.8,372.7L28.2,369.7L26.7,366.5L28.4,363.7L30.3,361.1L30.0,358.0L28.7,355.2L30.1,352.0L28.9,349.2L27.9,346.4L29.7,343.1L27.5,340.5L27.8,337.4L27.4,334.5L26.9,331.6L26.4,328.7L24.8,325.9L23.6,323.1L23.3,320.2L22.8,317.3L22.5,314.3L23.6,311.2L21.6,308.5L23.5,305.2L21.0,302.6L22.2,299.5L22.7,296.4L19.6,293.9L21.9,290.5L18.1,288.1L19.9,284.9L20.7,281.8L16.1,279.5L19.8,275.9L18.2,273.2L17.5,270.3L14.4,267.8L17.2,264.4L17.3,261.4L15.9,258.6L16.5,255.5L12.1,253.2L11.7,250.3L11.8,247.3L11.7,244.3L11.4,241.4L14.0,238.0L12.6,235.2L10.8,232.5L11.2,229.4L10.7,226.5L10.0,223.6L11.4,220.4L10.7,217.6L7.9,215.0L8.0,212.0L8.0,209.0L10.6,206.3L9.1,203.2L11.1,200.4L9.3,197.2L10.5,194.4L9.5,191.3L10.2,188.3L10.4,185.4L10.6,182.4L11.9,179.6L12.4,176.7L15.0,174.0L14.7,171.0L12.4,167.7L14.6,165.0L14.1,161.9L14.9,159.0L17.3,156.3L15.7,153.1L16.8,150.3L16.1,147.2L14.6,144.0L17.7,141.4L17.5,138.4L16.9,135.3L16.4,132.3L18.3,129.5L16.7,126.3L18.4,123.6L19.7,120.7L22.0,118.0L18.5,114.6L22.2,112.1L20.5,108.9L22.9,106.2L23.4,103.3L22.5,100.1L20.7,96.9L23.6,94.3L24.0,91.4L25.6,88.6L25.0,85.5L22.3,82.2L25.4,79.6L24.5,76.5L24.0,73.4L27.5,70.9L25.2,67.6L28.4,65.0L27.1,61.8L28.4,59.0L30.1,56.2L29.4,53.1L28.1,50.0L29.4,47.2L29.9,44.2L27.8,41.0L31.3,38.4L32.5,35.6L32.8,32.6L29.7,29.2L30.0,26.3L33.7,23.8L34.1,20.8L31.6,17.5L31.8,14.6L32.8,11.7L33.7,8.8L34.8,6.0L35.8,3.1Z" fill="url(#g)" opacity=".24"/></g></svg>