<svg xmlns="http://www.w3.org/2000/svg" viewBox="0 0 1600 170" preserveAspectRatio="none"><path d="M-10.00,43.04L-6.91,41.79L-3.82,40.76L-0.78,44.30L2.28,45.16L5.37,44.35L8.43,45.65L11.54,42.82L14.62,42.95L17.71,42.02L20.77,43.54L23.82,45.23L26.91,44.23L30.00,43.53L32.94,44.81L35.89,46.06L39.08,46.12L42.20,46.48L44.98,48.62L48.33,47.79L52.01,45.33L54.18,50.57L57.20,51.45L60.29,51.98L64.34,47.61L67.02,50.26L70.00,51.33L73.53,50.18L76.13,51.92L78.53,54.26L81.29,55.48L84.98,53.85L87.62,55.43L89.35,59.84L93.09,58.03L96.21,58.18L98.53,60.76L102.01,59.77L103.45,65.05L107.53,62.21L110.00,64.34L113.10,66.34L116.13,62.82L119.21,62.34L122.29,62.60L125.39,64.65L128.48,65.32L131.55,65.06L134.58,61.32L137.66,61.65L140.75,62.44L143.83,62.42L146.95,66.13L150.00,63.79L153.27,66.18L156.23,64.33L159.07,60.89L162.20,61.41L165.46,63.59L168.34,60.82L171.74,64.83L174.58,61.53L177.50,59.11L180.69,60.45L184.04,63.88L187.05,62.74L190.00,60.81L192.08,63.96L196.48,60.91L197.95,65.68L201.65,64.50L203.53,68.19L206.59,68.72L209.95,68.44L212.38,70.67L215.08,72.16L217.97,73.15L222.07,70.90L224.05,74.32L227.11,74.86L230.00,75.84L232.87,74.06L236.25,75.40L239.65,76.86L242.62,75.68L245.45,73.72L248.12,70.72L251.46,71.81L254.43,70.63L257.45,69.79L260.78,70.83L263.89,70.53L266.98,70.11L270.00,69.24L273.09,69.65L276.22,71.61L279.21,68.13L282.34,70.20L285.41,69.74L288.49,69.79L291.56,69.50L294.55,66.04L297.69,68.30L300.76,68.26L303.87,69.38L306.94,68.88L310.00,68.18L313.00,67.16L315.79,65.16L319.66,68.12L322.01,64.13L325.88,67.08L328.08,62.38L331.34,62.58L334.49,62.26L337.97,63.42L340.23,59.00L343.53,59.34L347.40,62.34L350.00,59.46L353.09,59.08L356.20,58.09L359.25,58.98L362.23,62.42L365.39,59.91L368.49,59.06L371.48,62.03L374.59,60.91L377.61,62.98L380.82,58.61L383.92,58.11L386.90,61.24L390.00,60.67L393.93,61.79L394.79,56.06L399.40,58.69L401.12,54.89L405.31,56.58L407.47,53.75L410.36,52.54L412.83,50.41L415.22,48.09L417.79,46.16L420.87,45.38L423.55,43.70L428.03,46.07L430.00,42.80L433.18,42.87L436.04,41.11L438.92,39.38L441.97,38.74L445.48,40.78L448.01,36.99L451.32,37.88L454.63,38.74L457.88,39.20L460.65,36.91L464.01,38.03L466.93,36.58L470.00,36.03L473.05,34.27L476.20,38.45L479.22,35.40L482.33,37.05L485.36,34.04L488.50,38.24L491.57,37.31L494.61,35.04L497.69,35.72L500.73,33.09L503.86,36.23L506.93,35.91L510.00,35.36L512.86,37.68L516.16,36.01L519.15,37.16L522.15,38.11L525.67,34.55L528.48,37.28L531.72,36.17L534.57,38.55L537.63,39.00L540.51,41.17L543.80,39.57L547.05,38.36L550.00,39.85L553.62,40.61L556.77,39.87L558.39,34.27L562.60,36.90L566.09,37.23L568.81,35.14L571.47,32.84L574.71,32.39L577.21,29.58L580.94,30.69L583.15,26.95L587.20,29.07L590.00,27.23L593.04,25.55L596.15,26.81L599.19,25.22L602.36,29.07L605.35,25.50L608.43,25.57L611.56,27.91L614.61,26.26L617.73,28.43L620.71,23.82L623.85,26.43L626.92,26.41L630.00,26.32L632.56,29.33L635.63,30.04L639.18,28.58L642.51,28.15L644.80,32.35L648.76,29.08L651.89,29.54L654.31,33.14L658.05,30.85L660.46,34.55L664.16,32.42L666.71,35.49L670.00,35.20L672.78,33.76L675.17,31.45L678.96,32.32L680.80,28.75L685.26,31.13L686.95,27.22L689.68,25.66L692.11,23.45L695.00,22.26L697.88,21.05L701.48,21.48L703.40,18.09L707.14,18.83L710.00,17.58L712.49,20.58L716.13,19.34L719.21,20.19L722.33,20.84L725.09,22.84L727.97,24.40L731.53,23.47L734.87,23.37L737.04,27.54L740.14,28.27L744.53,24.29L747.23,26.53L750.00,28.49L752.98,30.44L756.15,28.81L759.13,30.85L762.39,27.47L765.52,26.64L768.55,27.83L771.58,28.74L774.73,27.58L777.67,30.30L780.92,27.31L783.90,29.32L786.96,29.65L790.00,30.58L792.55,33.50L796.10,32.27L799.72,30.79L801.98,34.91L804.80,36.74L808.59,34.54L811.48,36.05L814.69,36.26L817.40,38.50L821.34,35.68L823.27,41.15L826.33,41.99L830.00,40.27L833.11,40.96L836.21,41.41L839.33,42.52L842.25,38.37L845.43,40.92L848.51,40.77L851.45,37.03L854.68,40.94L857.63,37.56L860.81,40.09L863.88,39.84L866.87,37.37L870.00,38.77L873.19,39.10L876.55,38.75L879.23,41.13L881.85,43.69L884.96,44.34L888.53,43.20L890.87,46.85L893.98,47.51L897.75,45.55L900.76,46.60L903.26,49.68L907.27,46.76L910.00,48.92L913.07,49.55L916.18,47.52L919.24,48.61L922.33,47.61L925.35,51.57L928.47,48.93L931.52,50.73L934.61,49.67L937.68,49.90L940.76,50.29L943.86,48.66L946.96,47.20L950.00,49.51L953.24,49.25L955.82,52.45L959.41,50.34L962.42,51.28L965.78,50.35L968.14,54.73L972.01,51.15L974.47,54.98L978.15,52.37L980.65,56.02L984.37,53.23L986.59,58.30L990.00,57.14L992.27,59.78L995.96,58.58L998.50,60.51L1001.17,62.08L1004.54,61.74L1006.71,64.65L1010.03,64.46L1012.42,66.77L1016.27,65.15L1019.07,66.35L1021.00,69.94L1023.42,72.16L1027.90,68.82L1030.00,71.94L1033.04,73.89L1036.19,69.91L1039.19,74.17L1042.26,74.79L1045.40,71.35L1048.47,72.01L1051.51,73.91L1054.58,74.17L1057.67,73.86L1060.80,71.15L1063.82,74.11L1066.93,72.27L1070.00,72.71L1072.93,74.66L1076.07,74.16L1079.10,74.95L1082.32,73.66L1085.19,76.23L1088.36,75.48L1091.56,74.36L1094.86,72.17L1097.73,74.75L1100.71,76.15L1103.72,77.14L1106.76,77.82L1110.00,76.26L1112.67,73.93L1115.75,73.11L1119.87,76.09L1122.98,75.37L1125.37,72.04L1128.04,69.68L1131.71,71.05L1134.19,68.00L1137.65,68.56L1140.19,65.75L1143.97,67.50L1147.31,67.65L1150.00,65.38L1153.10,67.38L1156.14,63.84L1159.24,66.04L1162.33,68.04L1165.39,65.64L1168.48,66.70L1171.53,63.89L1174.60,63.19L1177.69,64.43L1180.79,67.20L1183.86,66.94L1186.93,65.44L1190.00,65.00L1193.12,64.84L1196.14,63.99L1199.09,62.70L1202.34,63.40L1205.47,63.35L1208.18,60.34L1211.25,59.85L1214.94,63.61L1217.80,61.67L1220.44,58.26L1223.71,59.10L1226.64,57.68L1230.00,59.17L1233.00,61.40L1236.17,58.89L1239.28,58.15L1242.29,60.19L1245.35,60.69L1248.38,61.91L1251.50,60.87L1254.58,61.06L1257.66,60.97L1260.66,63.12L1263.86,60.21L1266.89,61.49L1270.00,60.70L1273.00,63.30L1276.18,59.91L1279.15,63.45L1282.32,60.59L1285.46,58.92L1288.40,63.24L1291.61,59.17L1294.59,62.36L1297.74,60.04L1300.82,60.14L1303.89,60.27L1306.99,59.72L1310.00,61.96L1312.30,59.44L1315.17,58.24L1317.59,55.99L1321.52,57.29L1323.46,53.94L1327.25,54.89L1329.03,51.14L1332.35,51.00L1334.88,49.01L1338.80,50.30L1342.08,50.06L1343.23,44.84L1347.88,47.82L1350.00,44.87L1353.15,44.23L1355.74,41.66L1360.00,44.84L1362.15,40.76L1365.03,39.21L1368.44,39.47L1371.49,38.46L1374.00,35.64L1378.30,38.95L1380.83,36.19L1383.85,35.09L1386.67,33.31L1390.00,33.29L1393.08,33.04L1396.27,34.08L1399.19,32.03L1402.36,32.77L1405.56,33.92L1408.30,29.80L1411.36,29.37L1414.86,33.89L1417.63,30.16L1420.63,29.06L1423.90,30.95L1426.92,30.02L1430.00,29.78L1433.07,30.19L1436.11,32.61L1439.19,32.23L1442.28,31.44L1445.35,32.02L1448.50,28.10L1451.53,30.77L1454.62,29.91L1457.71,29.22L1460.75,31.22L1463.83,31.37L1466.95,28.83L1470.00,30.45L1473.09,32.56L1476.15,30.06L1479.25,32.96L1482.32,32.39L1485.40,32.84L1488.46,30.49L1491.55,32.24L1494.61,29.23L1497.69,30.36L1500.79,32.21L1503.87,32.66L1506.92,29.83L1510.00,30.14L1513.10,28.98L1516.17,29.25L1519.22,30.95L1522.27,32.22L1525.41,28.75L1528.43,32.33L1531.50,32.52L1534.66,28.22L1537.68,31.37L1540.75,31.67L1543.81,32.53L1546.96,28.99L1550.00,30.85L1553.75,32.36L1555.06,26.98L1559.32,29.93L1560.62,24.53L1564.02,25.04L1567.13,24.75L1569.69,22.89L1572.85,22.72L1576.44,23.80L1578.49,20.49L1581.58,20.14L1584.48,19.25L1587.14,17.67L1590.00,16.68L1592.72,19.38L1593.47,22.34L1593.57,25.39L1592.32,28.61L1591.70,31.74L1591.25,34.86L1592.23,37.79L1593.39,40.70L1595.71,43.45L1595.48,46.54L1596.71,49.44L1593.62,52.90L1595.07,55.76L1593.24,59.06L1594.16,62.00L1594.84,64.97L1597.27,67.71L1594.91,71.07L1597.02,73.85L1597.50,76.85L1597.55,79.90L1596.91,83.04L1599.96,85.70L1597.37,89.10L1599.92,91.82L1601.95,94.61L1598.11,98.17L1600.21,100.96L1603.33,103.61L1600.90,106.98L1603.29,109.73L1605.05,112.55L1605.44,115.56L1602.18,119.04L1603.92,121.87L1605.52,124.72L1602.64,128.16L1604.60,130.96L1602.60,134.28L1606.66,136.80L1608.15,139.67L1607.85,142.76L1607.74,145.84L1609.62,148.65L1608.61,151.84L1609.25,154.81L1610.13,157.75L1609.02,160.96L1611.43,163.70L1611.63,166.73L1610.00,170.00L1607.00,167.27L1604.00,167.44L1601.00,171.00L1598.00,169.18L1595.00,167.50L1592.00,172.48L1589.00,169.57L1586.00,172.22L1583.00,169.30L1580.00,168.67L1577.00,169.57L1574.00,170.52L1571.00,170.07L1568.00,169.24L1565.00,172.74L1562.00,168.47L1559.00,171.68L1556.00,171.94L1553.00,168.81L1550.00,168.52L1547.00,169.35L1544.00,167.98L1541.00,171.76L1538.00,169.13L1535.00,169.34L1532.00,168.17L1529.00,168.13L1526.00,170.54L1523.00,171.03L1520.00,168.40L1517.00,170.13L1514.00,168.70L1511.00,171.27L1508.00,171.22L1505.00,167.45L1502.00,172.18L1499.00,168.84L1496.00,171.92L1493.00,167.51L1490.00,169.40L1487.00,167.69L1484.00,172.50L1481.00,171.38L1478.00,167.51L1475.00,171.12L1472.00,168.32L1469.00,171.47L1466.00,171.69L1463.00,168.32L1460.00,168.12L1457.00,172.15L1454.00,167.35L1451.00,169.62L1448.00,172.50L1445.00,171.14L1442.00,172.71L1439.00,171.75L1436.00,168.83L1433.00,172.71L1430.00,169.58L1427.00,168.11L1424.00,171.25L1421.00,167.81L1418.00,167.27L1415.00,172.14L1412.00,170.46L1409.00,171.72L1406.00,171.16L1403.00,170.09L1400.00,170.50L1397.00,167.50L1394.00,168.03L1391.00,169.91L1388.00,168.74L1385.00,171.98L1382.00,171.30L1379.00,170.37L1376.00,169.42L1373.00,168.86L1370.00,172.17L1367.00,169.37L1364.00,168.28L1361.00,167.55L1358.00,171.58L1355.00,167.20L1352.00,167.75L1349.00,169.02L1346.00,169.66L1343.00,169.02L1340.00,168.67L1337.00,171.02L1334.00,167.24L1331.00,172.80L1328.00,172.77L1325.00,170.43L1322.00,170.86L1319.00,172.58L1316.00,172.72L1313.00,169.14L1310.00,169.01L1307.00,171.55L1304.00,172.36L1301.00,171.96L1298.00,169.26L1295.00,170.17L1292.00,171.94L1289.00,169.03L1286.00,171.28L1283.00,171.83L1280.00,169.31L1277.00,172.29L1274.00,168.41L1271.00,168.19L1268.00,170.83L1265.00,172.68L1262.00,167.61L1259.00,171.97L1256.00,170.42L1253.00,168.67L1250.00,171.93L1247.00,172.63L1244.00,171.67L1241.00,169.25L1238.00,168.63L1235.00,169.31L1232.00,169.68L1229.00,168.01L1226.00,170.55L1223.00,170.66L1220.00,170.08L1217.00,167.72L1214.00,172.06L1211.00,167.46L1208.00,170.37L1205.00,171.00L1202.00,170.65L1199.00,172.03L1196.00,172.75L1193.00,168.83L1190.00,168.69L1187.00,170.71L1184.00,167.48L1181.00,168.43L1178.00,169.32L1175.00,170.36L1172.00,169.92L1169.00,171.85L1166.00,167.68L1163.00,170.97L1160.00,169.12L1157.00,172.21L1154.00,171.09L1151.00,169.84L1148.00,169.15L1145.00,171.05L1142.00,168.28L1139.00,172.22L1136.00,172.63L1133.00,169.06L1130.00,167.88L1127.00,171.02L1124.00,172.73L1121.00,170.11L1118.00,167.63L1115.00,168.46L1112.00,168.48L1109.00,170.37L1106.00,171.75L1103.00,171.61L1100.00,171.55L1097.00,169.57L1094.00,170.94L1091.00,170.17L1088.00,171.73L1085.00,167.99L1082.00,171.81L1079.00,171.18L1076.00,172.20L1073.00,172.07L1070.00,170.61L1067.00,167.58L1064.00,169.19L1061.00,169.43L1058.00,171.91L1055.00,168.44L1052.00,167.76L1049.00,171.91L1046.00,172.52L1043.00,170.48L1040.00,172.57L1037.00,172.51L1034.00,169.15L1031.00,168.04L1028.00,169.79L1025.00,168.05L1022.00,168.86L1019.00,167.91L1016.00,170.58L1013.00,169.07L1010.00,168.55L1007.00,168.80L1004.00,167.21L1001.00,172.48L998.00,169.28L995.00,170.12L992.00,170.16L989.00,172.16L986.00,172.03L983.00,172.52L980.00,168.82L977.00,169.39L974.00,167.45L971.00,170.38L968.00,170.25L965.00,171.37L962.00,169.97L959.00,168.80L956.00,172.61L953.00,170.42L950.00,171.51L947.00,172.17L944.00,168.78L941.00,167.78L938.00,168.72L935.00,168.30L932.00,168.46L929.00,170.30L926.00,169.90L923.00,169.95L920.00,169.28L917.00,170.61L914.00,170.24L911.00,167.24L908.00,168.35L905.00,170.66L902.00,172.38L899.00,167.25L896.00,170.41L893.00,172.58L890.00,170.91L887.00,171.64L884.00,169.05L881.00,171.31L878.00,169.46L875.00,170.68L872.00,171.87L869.00,171.15L866.00,168.47L863.00,169.45L860.00,170.57L857.00,168.19L854.00,167.20L851.00,170.97L848.00,168.82L845.00,168.36L842.00,171.33L839.00,168.11L836.00,171.69L833.00,169.12L830.00,168.33L827.00,172.70L824.00,168.26L821.00,171.71L818.00,171.23L815.00,168.75L812.00,170.85L809.00,171.48L806.00,172.69L803.00,171.80L800.00,171.59L797.00,168.17L794.00,168.62L791.00,172.34L788.00,172.30L785.00,168.83L782.00,168.92L779.00,170.57L776.00,167.90L773.00,171.95L770.00,172.62L767.00,172.70L764.00,169.41L761.00,169.93L758.00,167.77L755.00,168.50L752.00,171.79L749.00,172.57L746.00,169.75L743.00,170.35L740.00,172.50L737.00,168.22L734.00,170.71L731.00,168.22L728.00,171.16L725.00,167.98L722.00,167.93L719.00,167.71L716.00,169.16L713.00,168.55L710.00,168.90L707.00,168.39L704.00,169.97L701.00,170.68L698.00,170.12L695.00,168.17L692.00,168.05L689.00,169.99L686.00,172.70L683.00,171.70L680.00,168.93L677.00,170.19L674.00,167.26L671.00,167.78L668.00,169.79L665.00,172.19L662.00,170.82L659.00,168.75L656.00,168.29L653.00,169.23L650.00,172.76L647.00,167.68L644.00,170.87L641.00,171.58L638.00,170.24L635.00,170.54L632.00,170.30L629.00,170.69L626.00,169.98L623.00,167.86L620.00,167.39L617.00,169.77L614.00,171.50L611.00,171.97L608.00,170.10L605.00,171.17L602.00,168.40L599.00,170.47L596.00,169.52L593.00,171.87L590.00,168.71L587.00,169.67L584.00,168.63L581.00,172.38L578.00,172.80L575.00,170.13L572.00,170.91L569.00,168.99L566.00,168.93L563.00,172.48L560.00,168.44L557.00,171.19L554.00,171.54L551.00,170.50L548.00,168.05L545.00,172.22L542.00,169.13L539.00,170.85L536.00,169.14L533.00,167.57L530.00,172.21L527.00,171.08L524.00,168.19L521.00,169.30L518.00,169.20L515.00,171.88L512.00,168.06L509.00,167.92L506.00,172.46L503.00,169.13L500.00,168.83L497.00,171.86L494.00,170.65L491.00,170.88L488.00,171.81L485.00,172.67L482.00,172.51L479.00,170.92L476.00,170.47L473.00,168.61L470.00,172.13L467.00,171.58L464.00,168.27L461.00,170.59L458.00,167.69L455.00,167.78L452.00,172.23L449.00,169.04L446.00,167.39L443.00,171.10L440.00,171.02L437.00,167.62L434.00,171.48L431.00,171.85L428.00,172.74L425.00,169.93L422.00,168.12L419.00,171.02L416.00,168.22L413.00,172.09L410.00,168.09L407.00,171.79L404.00,170.62L401.00,167.59L398.00,167.65L395.00,170.03L392.00,171.99L389.00,169.70L386.00,168.43L383.00,170.70L380.00,170.28L377.00,171.20L374.00,168.63L371.00,171.55L368.00,172.12L365.00,172.41L362.00,167.64L359.00,171.86L356.00,170.49L353.00,172.41L350.00,168.44L347.00,167.21L344.00,168.02L341.00,167.48L338.00,172.26L335.00,168.39L332.00,169.48L329.00,171.95L326.00,169.40L323.00,169.05L320.00,172.10L317.00,168.50L314.00,168.33L311.00,170.29L308.00,169.64L305.00,168.13L302.00,169.05L299.00,172.65L296.00,168.18L293.00,172.15L290.00,170.26L287.00,168.17L284.00,170.68L281.00,168.76L278.00,169.68L275.00,169.01L272.00,170.25L269.00,172.10L266.00,171.40L263.00,168.03L260.00,168.05L257.00,170.54L254.00,167.93L251.00,171.47L248.00,168.92L245.00,168.28L242.00,169.82L239.00,168.28L236.00,167.82L233.00,167.49L230.00,169.16L227.00,167.98L224.00,172.69L221.00,171.63L218.00,168.60L215.00,168.58L212.00,167.55L209.00,171.65L206.00,170.77L203.00,172.58L200.00,170.53L197.00,170.77L194.00,167.26L191.00,171.40L188.00,170.50L185.00,167.56L182.00,170.33L179.00,168.58L176.00,172.42L173.00,172.39L170.00,172.61L167.00,170.56L164.00,171.43L161.00,168.72L158.00,170.51L155.00,167.71L152.00,171.21L149.00,169.99L146.00,172.67L143.00,171.68L140.00,170.04L137.00,168.56L134.00,169.78L131.00,172.20L128.00,171.33L125.00,169.64L122.00,169.15L119.00,171.62L116.00,167.32L113.00,170.96L110.00,172.20L107.00,168.85L104.00,172.29L101.00,171.97L98.00,167.55L95.00,169.82L92.00,172.70L89.00,171.34L86.00,171.83L83.00,171.61L80.00,168.70L77.00,172.04L74.00,169.74L71.00,172.26L68.00,171.65L65.00,172.50L62.00,167.45L59.00,167.33L56.00,172.30L53.00,171.46L50.00,168.90L47.00,171.30L44.00,171.35L41.00,167.82L38.00,168.61L35.00,171.65L32.00,172.04L29.00,169.12L26.00,169.43L23.00,168.51L20.00,167.65L17.00,170.34L14.00,170.49L11.00,171.25L8.00,172.22L5.00,169.82L2.00,170.03L-1.00,167.83L-4.00,167.54L-7.00,170.09L-10.00,170.00L-10.47,166.98L-10.64,163.95L-8.70,160.93L-11.50,157.91L-11.63,154.89L-12.53,151.86L-12.25,148.84L-10.89,145.82L-10.22,142.80L-10.11,139.77L-9.51,136.75L-10.40,133.73L-11.03,130.70L-9.21,127.68L-11.08,124.66L-12.20,121.64L-9.24,118.61L-9.84,115.59L-10.37,112.57L-12.76,109.54L-8.13,106.52L-11.71,103.50L-8.52,100.48L-8.73,97.45L-11.84,94.43L-12.32,91.41L-9.00,88.39L-8.46,85.36L-10.02,82.34L-7.98,79.32L-11.79,76.29L-8.06,73.27L-8.72,70.25L-11.74,67.23L-7.91,64.20L-7.27,61.18L-9.57,58.16L-11.69,55.14L-12.50,52.11L-9.96,49.09L-11.32,46.07Z" fill="white"/></svg>