<svg xmlns="http://www.w3.org/2000/svg" viewBox="0 0 1000 360" preserveAspectRatio="none"><path d="M23.73,108.24L27.71,107.80L31.35,106.21L36.01,108.02L39.57,106.16L41.97,100.49L46.76,102.71L49.65,98.65L54.72,101.81L57.27,96.62L60.88,94.94L64.80,94.30L70.00,97.88L72.99,94.16L75.66,89.36L79.60,88.77L84.63,91.83L87.57,87.92L91.63,87.73L95.73,89.02L99.13,85.49L103.60,89.33L107.21,87.22L111.08,86.96L114.91,86.40L118.39,83.42L122.44,84.35L126.04,82.20L130.39,85.21L133.37,78.82L137.73,81.88L141.13,78.37L144.92,77.51L149.15,79.65L152.91,78.65L156.32,75.15L161.00,80.39L164.08,74.75L168.26,76.55L172.21,74.73L175.82,79.71L179.85,76.44L183.52,80.16L187.39,79.87L191.50,75.09L195.12,79.75L199.20,75.42L202.94,77.78L206.83,77.24L210.57,79.65L214.64,75.59L218.29,79.57L222.26,77.60L226.19,76.26L229.74,82.19L233.59,82.49L237.47,82.11L241.26,83.36L245.23,81.30L249.20,79.28L253.03,79.89L256.80,81.63L260.85,77.97L264.54,81.22L268.50,79.36L272.14,83.50L276.19,79.88L280.05,79.95L283.86,80.87L287.67,81.79L291.34,85.58L295.33,83.07L299.59,83.96L301.71,77.93L306.11,79.27L310.31,79.98L313.29,76.73L316.17,73.17L321.02,75.98L323.96,72.58L327.86,72.32L331.90,72.53L335.21,70.35L338.63,68.52L342.86,69.33L346.51,68.24L348.98,63.34L353.66,65.59L357.57,65.36L361.25,64.40L364.25,61.21L368.08,60.70L371.84,58.26L375.68,57.86L379.62,59.67L383.57,61.96L387.42,61.90L391.31,62.59L394.94,56.94L399.01,62.13L402.66,56.90L406.71,61.57L410.33,55.65L414.20,55.94L418.23,60.14L422.07,59.62L425.93,59.60L429.64,55.99L433.70,61.03L437.31,54.90L441.37,59.84L445.27,60.86L448.87,54.37L452.84,57.08L456.69,56.94L460.60,58.04L464.49,58.97L468.17,54.42L472.23,59.40L476.00,57.17L479.89,58.00L483.54,52.70L487.49,55.03L491.29,53.57L495.33,58.09L498.95,52.06L503.06,58.37L506.79,55.11L510.49,53.90L514.00,51.72L517.80,51.00L521.53,49.93L525.21,48.61L530.16,53.63L532.86,47.43L536.50,45.92L540.61,46.74L545.11,49.49L548.05,44.50L552.07,44.85L555.80,43.79L560.47,47.37L564.28,46.71L567.76,44.42L570.61,38.96L574.49,38.62L579.22,42.52L582.15,37.48L586.69,40.43L590.21,38.34L593.92,40.82L597.88,37.71L601.79,35.74L605.46,39.01L609.23,40.04L613.13,38.35L616.83,40.95L620.84,36.90L624.62,37.69L628.26,41.69L632.10,41.25L635.94,40.91L639.86,38.71L643.44,43.86L647.50,38.58L651.29,39.33L655.07,40.12L658.93,39.33L662.49,44.98L666.37,43.78L670.17,44.25L674.09,41.88L677.80,44.47L681.79,40.74L685.40,45.18L689.48,39.51L693.16,42.64L697.08,40.40L700.92,39.91L704.53,44.62L708.39,43.66L712.26,42.56L716.16,40.89L719.76,45.85L723.52,46.99L727.59,41.55L731.16,47.14L734.96,47.63L738.81,46.90L742.62,47.15L746.54,44.88L750.48,42.24L754.14,45.79L758.20,45.64L761.35,42.05L765.95,43.91L769.86,43.18L773.22,40.38L777.04,39.33L780.65,37.47L784.79,37.60L788.31,35.40L793.36,38.92L795.40,31.19L799.78,32.24L804.81,35.67L807.51,30.42L811.84,31.27L815.05,27.92L818.43,25.20L823.15,27.50L826.81,25.85L830.77,25.29L834.66,26.18L838.61,28.34L842.35,25.37L846.15,23.76L849.99,23.25L853.78,21.40L857.69,22.64L861.64,25.04L865.47,24.19L869.39,25.66L873.22,24.89L877.05,24.25L880.90,23.90L884.70,22.49L888.62,23.93L892.43,22.68L896.29,22.51L900.05,20.10L903.93,20.54L907.79,20.48L911.60,19.21L915.57,22.05L919.53,24.79L923.16,18.67L927.06,19.84L931.09,24.09L934.90,22.92L938.80,23.96L942.59,22.04L946.52,23.80L950.32,22.44L953.99,17.29L957.97,20.45L961.89,22.00L965.78,22.89L969.65,23.23L973.41,20.41L977.24,19.70L976.37,23.86L972.02,25.56L969.25,28.38L965.98,30.84L968.45,37.36L965.97,40.38L961.27,41.84L961.82,47.00L955.15,47.07L952.40,49.90L952.47,54.73L951.66,58.93L945.73,59.52L946.56,64.88L942.95,67.10L942.09,71.27L937.36,72.70L939.19,78.77L934.56,80.28L938.49,82.31L939.27,86.56L940.28,90.66L944.46,92.52L948.07,94.78L945.36,101.50L947.90,104.51L953.91,105.08L954.93,109.17L954.36,113.02L955.74,117.25L952.27,120.53L948.58,123.78L952.74,128.54L950.76,132.12L946.81,135.31L950.81,140.05L949.39,143.73L948.95,147.61L948.98,151.57L948.05,155.35L943.20,158.38L947.62,163.19L945.84,166.81L943.52,170.32L940.67,173.72L942.18,177.98L943.65,182.22L943.37,186.13L939.41,189.32L942.57,192.30L944.19,195.98L945.01,200.03L945.10,204.40L949.60,206.77L946.91,212.41L949.63,215.59L955.86,217.18L954.49,222.22L958.36,224.88L958.88,229.06L957.87,233.93L961.29,236.80L962.69,240.58L959.23,243.22L957.27,246.55L955.11,249.79L959.30,255.94L955.74,258.54L953.32,261.65L949.67,264.21L951.49,269.27L946.77,271.34L945.24,274.87L942.42,277.80L941.99,281.84L944.16,287.06L942.15,290.37L938.17,292.77L939.49,297.60L935.84,300.16L932.58,302.89L931.06,306.43L930.68,310.48L926.82,311.99L922.95,313.16L918.97,311.60L915.08,312.25L911.17,312.53L907.31,313.98L903.32,311.97L899.44,313.03L895.35,308.60L891.47,309.35L887.61,310.98L883.67,310.38L879.78,311.15L875.86,310.94L871.97,311.66L868.20,315.62L864.28,315.34L860.40,316.44L856.46,315.86L852.45,313.34L848.48,312.10L844.51,310.65L840.73,314.06L836.94,317.44L832.92,314.78L828.90,312.17L824.97,311.89L821.08,312.60L817.23,314.16L813.47,318.22L809.43,315.14L805.37,315.23L801.22,315.66L797.30,315.18L794.74,309.13L790.80,308.68L786.43,310.06L782.43,309.88L778.94,307.64L775.00,307.22L771.64,304.42L767.14,306.29L764.41,300.94L760.68,299.68L755.46,304.47L752.85,298.62L748.51,299.88L744.89,298.12L740.34,300.22L737.74,294.34L733.75,294.14L728.72,298.16L725.18,296.12L721.79,293.43L717.66,293.83L713.88,292.75L709.67,293.45L706.88,288.33L702.74,288.74L698.85,288.11L694.86,287.80L691.24,288.97L688.34,293.17L684.72,294.33L680.72,293.99L676.64,293.27L673.46,296.31L669.20,294.84L665.86,297.22L661.42,295.03L658.22,297.98L655.28,301.96L650.94,300.18L647.19,300.85L642.66,298.31L640.53,305.66L635.74,302.04L632.04,302.90L628.24,303.36L625.80,309.40L621.72,308.70L617.87,308.95L613.27,306.14L610.18,309.53L606.58,310.79L602.82,311.41L599.10,310.49L594.52,312.57L590.91,311.25L587.98,307.60L584.76,304.95L580.40,306.24L577.53,302.38L573.27,303.31L570.12,300.42L566.57,298.92L562.89,297.86L558.57,299.04L554.60,298.97L551.49,295.93L546.78,298.46L544.73,291.74L541.07,290.61L536.94,291.10L532.86,291.45L528.92,291.28L525.96,287.73L521.44,289.58L518.72,285.20L514.61,285.62L510.50,286.07L506.39,286.52L502.63,285.74L499.48,282.84L496.12,280.66L492.15,278.77L488.34,279.59L484.69,283.25L480.89,284.30L477.05,284.54L472.85,278.83L469.03,279.45L465.19,279.73L461.33,279.70L457.63,282.44L453.70,281.23L450.00,284.01L446.02,281.96L442.27,283.85L438.48,285.03L434.64,285.28L430.84,286.33L426.94,285.62L423.04,284.97L419.36,288.16L415.22,283.37L411.62,287.80L407.77,287.82L403.95,288.49L400.02,287.34L396.22,288.43L392.15,284.86L388.32,285.25L384.57,287.18L379.88,289.28L377.47,283.85L374.21,281.24L369.86,282.23L365.66,282.70L362.30,280.41L358.85,278.43L355.68,275.51L351.62,275.54L347.85,274.58L343.56,275.37L339.14,276.57L337.29,269.32L332.87,270.52L329.82,267.20L324.54,271.25L321.38,268.31L317.36,268.18L313.75,266.73L309.70,266.70L306.51,263.86L303.82,259.36L299.15,261.39L295.23,260.95L290.81,262.16L288.76,255.54L284.14,257.42L279.67,258.81L276.90,254.56L273.34,257.43L269.17,254.57L265.39,255.32L261.37,253.81L257.55,254.20L254.19,258.93L249.91,255.01L246.57,259.91L242.19,255.13L238.68,258.39L234.64,256.77L231.02,259.01L227.25,259.90L223.72,263.03L219.36,258.33L215.83,261.44L211.77,259.65L208.18,262.17L204.27,261.68L200.28,260.56L196.50,261.30L193.03,265.02L189.04,263.81L185.00,262.18L181.49,265.45L177.93,268.32L174.06,268.22L170.13,267.57L165.88,263.98L162.65,269.93L158.21,264.51L154.68,267.61L150.74,266.51L149.40,261.96L143.52,263.45L143.23,257.51L140.73,254.49L138.29,251.40L133.75,251.10L130.43,249.20L125.73,249.10L122.18,247.50L120.73,243.09L117.61,240.90L116.04,236.65L110.53,237.65L109.15,233.16L104.32,233.25L103.61,227.86L97.91,229.11L97.88,222.82L95.42,219.74L91.49,218.64L87.75,217.28L83.76,217.94L80.05,219.64L75.65,218.79L71.94,220.47L67.72,220.31L64.32,223.12L60.59,224.74L62.20,220.22L55.22,218.43L60.33,212.80L56.90,209.88L52.75,207.19L52.69,203.20L51.85,199.47L53.06,195.08L50.44,191.90L52.21,187.34L48.18,184.61L47.22,180.90L46.85,177.02L47.06,172.94L41.27,170.77L44.69,165.69L39.38,163.36L42.33,158.42L41.63,154.64L39.86,151.19L38.70,147.56L34.87,144.76L32.98,141.36L35.78,136.46L28.52,134.76L30.99,129.97L31.96,125.66L31.17,121.90L25.10,119.82L28.36,114.78L27.38,111.09Z" fill="white"/></svg>